<?xml version="1.0" encoding="utf-8"?>
<!-- Generator: Adobe Illustrator 22.0.1, SVG Export Plug-In . SVG Version: 6.00 Build 0)  -->
<svg version="1.1" id="OBJECTS" xmlns="http://www.w3.org/2000/svg" xmlns:xlink="http://www.w3.org/1999/xlink" x="0px" y="0px"
	 viewBox="0 0 479.9 264.3" style="enable-background:new 0 0 479.9 264.3;" xml:space="preserve">
<style type="text/css">
	.st0{fill:#CDE7F7;}
	.st1{fill:#D35957;}
	.st2{fill:#FA9E27;}
	.st3{fill:#A9D0DB;}
	.st4{fill:#EFF4FB;}
	.st5{fill:#C4C4C4;}
	.st6{fill:#009CC6;}
	.st7{fill:#FFFFFF;}
	.st8{fill:none;stroke:#FFFFFF;stroke-width:2;stroke-linecap:round;stroke-linejoin:round;stroke-miterlimit:10;}
	.st9{fill:#92BECD;}
	.st10{fill:#DBDBDB;}
	.st11{fill:#AFB2B6;}
	.st12{fill:#C25250;}
	.st13{fill:#DDDDDD;}
	.st14{fill:#D6D6D6;}
	.st15{fill:#C6C6C6;}
	.st16{fill:#4A3209;}
	.st17{fill:#E4B79E;}
	.st18{fill:#CFA086;}
	.st19{fill:#C59980;}
	.st20{fill:#945C46;}
	.st21{fill:#F1CBB9;}
	.st22{fill:#5B3E0E;}
	.st23{fill:#CE7B7B;}
	.st24{fill:#6BA5CE;}
	.st25{fill:none;}
</style>
<g>
	<path class="st0" d="M455.4,188.2c7.7,0,14-6,14-13.4c0-7.4-5.2-13.4-11.5-13.4c-6.3,0-11.5-6-11.5-13.4c0-7.4-6.3-13.4-14-13.4h-2
		c-7.7,0-14-6-14-13.4s-6.3-13.4-14-13.4h-3.9c-7.7,0-14-6-14-13.4s6.3-13.4,14-13.4h46.9c7.7,0,14-6,14-13.4s-6.3-13.4-14-13.4
		h-46.9c-7.7,0-14-6-14-13.4s-5-13.4-11.1-13.4c-6.1,0-11.1-6.1-11.1-13.5S356.3,0,348.6,0H244.4c-7.7,0-14,6.1-14,13.5
		S225.9,27,220.4,27c-5.5,0-9.9,6-9.9,13.4s-6.3,13.4-14,13.4h-53.4c-7.7,0-14,6-14,13.4s-6.3,13.4-14,13.4H82.9
		c-7.7,0-14,6-14,13.4s5.5,13.4,12.2,13.4c6.7,0,12.2,6,12.2,13.4s-6.3,13.4-14,13.4h-23c-7.7,0-14,6-14,13.4
		c0,7.4,6,13.4,13.3,13.4s13.3,6,13.3,13.4c0,7.4,6.3,13.4,14,13.4h12.7c7.7,0,14,6,14,13.4c0,7.4,6.3,13.4,14,13.4h19.7
		c7.7,0,14,6,14,13.4s6.3,13.4,14,13.4h247.4c7.7,0,14-6,14-13.4s-6.3-13.4-14-13.4h-8.1c-7.7,0-14-6-14-13.4
		c0-7.4,6.3-13.4,14-13.4H455.4z"/>
	<path class="st0" d="M480,228.9c0,7.4-6.3,13.5-14,13.5h-5.8c-7.7,0-14-6.1-14-13.5c0-7.4,6.3-13.5,14-13.5h5.8
		C473.7,215.4,480,221.5,480,228.9z"/>
	<path class="st0" d="M33.8,148c0,7.4-6.3,13.5-14,13.5h-5.8c-7.7,0-14-6.1-14-13.5c0-7.4,6.3-13.5,14-13.5h5.8
		C27.5,134.5,33.8,140.5,33.8,148z"/>
	<ellipse class="st0" cx="47.8" cy="95" rx="13.9" ry="13.5"/>
</g>
<path class="st1" d="M164.3,8.5c-2.5-2.5-6.6-2.5-9.1,0l-1,1l-1-1c-2.5-2.5-6.6-2.5-9.1,0c-2.5,2.5-2.5,6.6,0,9.1l1,1l9.1,9.1
	l9.1-9.1l1-1C166.8,15.1,166.8,11,164.3,8.5z"/>
<path class="st1" d="M426,153.6c-2.5-2.5-6.6-2.5-9.1,0l-1,1l-1-1c-2.5-2.5-6.6-2.5-9.1,0c-2.5,2.5-2.5,6.6,0,9.1l1,1l9.1,9.1
	l9.1-9.1l1-1C428.5,160.2,428.5,156.1,426,153.6z"/>
<path class="st2" d="M472.6,257.3c0,3.9-3.1,7-7,7H22.7c-3.9,0-7-3.1-7-7v-8.4c0-3.8,3.1-7,7-7h442.9c3.9,0,7,3.2,7,7V257.3z"/>
<path class="st3" d="M352.3,187.1c0,8.9-7.3,16.2-16.2,16.2H170.7c-8.9,0-16.2-7.3-16.2-16.2V87.6c0-8.9,7.3-16.2,16.2-16.2h165.4
	c8.9,0,16.2,7.3,16.2,16.2V187.1z"/>
<g>
	<g>
		<path class="st4" d="M170.9,203.3h165.4c8.9,0,16.2-7,16.2-15.6V180H154.5l0,7.7C154.5,196.4,161.9,203.3,170.9,203.3z"/>
	</g>
	<path class="st5" d="M258.4,192.2c0,2.8-2.2,5-5,5c-2.8,0-5-2.2-5-5c0-2.8,2.2-5,5-5C256.2,187.1,258.4,189.4,258.4,192.2z"/>
	<path class="st4" d="M303.5,235.8c0,3.4-2.8,6.2-6.2,6.2h-87.8c-3.4,0-6.2-2.8-6.2-6.2l0,0c0-3.4,2.8-6.2,6.2-6.2h87.8
		C300.8,229.6,303.5,232.4,303.5,235.8L303.5,235.8z"/>
	<polygon class="st5" points="274.9,229.6 232.1,229.6 234.8,203.3 272.1,203.3 	"/>
</g>
<g>
	<path class="st6" d="M177.5,47.4h-46.8c-3,0-5.5,2.5-5.5,5.5V77c0,3,2.5,5.5,5.5,5.5h36l7.9,13v-13h2.8c3,0,5.5-2.5,5.5-5.5V52.9
		C183,49.8,180.6,47.4,177.5,47.4z"/>
	<circle class="st7" cx="140.6" cy="65.8" r="2.8"/>
	<circle class="st7" cx="153.5" cy="65.8" r="2.8"/>
	<circle class="st7" cx="166.4" cy="65.8" r="2.8"/>
</g>
<g>
	<polyline class="st8" points="355.4,211.6 343,220.7 354.6,229.7 	"/>
	<path class="st9" d="M362.4,210.8c0,3-2.4,5.3-5.3,5.3c-3,0-5.3-2.4-5.3-5.3c0-3,2.4-5.3,5.3-5.3
		C360,205.5,362.4,207.8,362.4,210.8z"/>
	<path class="st9" d="M347.2,220.7c0,3-2.4,5.3-5.3,5.3c-3,0-5.3-2.4-5.3-5.3c0-3,2.4-5.3,5.3-5.3
		C344.8,215.3,347.2,217.7,347.2,220.7z"/>
	<path class="st9" d="M362,230.5c0,3-2.4,5.3-5.3,5.3c-3,0-5.3-2.4-5.3-5.3c0-3,2.4-5.3,5.3-5.3C359.6,225.2,362,227.6,362,230.5z"
		/>
</g>
<g>
	<polyline class="st8" points="116.6,121.6 116.6,99.2 135.1,99.2 135.1,121.6 	"/>
	<path class="st7" d="M135.8,121.6c0,2.5-2.7,4.5-6,4.5c-3.3,0-6-2-6-4.5c0-2.5,2.7-4.5,6-4.5C133.1,117.1,135.8,119.1,135.8,121.6z
		"/>
	<path class="st7" d="M117.4,121.6c0,2.5-2.7,4.5-6,4.5c-3.3,0-6-2-6-4.5s2.7-4.5,6-4.5C114.7,117.1,117.4,119.1,117.4,121.6z"/>
</g>
<path class="st1" d="M40.3,116.3c0.5-1,1.3-1,1.8,0l1.4,2.8c0.5,1,1.8,1.9,2.9,2.1l3.1,0.5c1.1,0.2,1.3,0.9,0.5,1.7l-2.2,2.2
	c-0.8,0.8-1.3,2.3-1.1,3.4l0.5,3.1c0.2,1.1-0.5,1.6-1.4,1l-2.8-1.5c-1-0.5-2.6-0.5-3.5,0l-2.8,1.5c-1,0.5-1.6,0-1.4-1l0.5-3.1
	c0.2-1.1-0.3-2.6-1.1-3.4l-2.2-2.2c-0.8-0.8-0.5-1.5,0.5-1.7l3.1-0.5c1.1-0.2,2.4-1.1,2.9-2.1L40.3,116.3z"/>
<path class="st1" d="M372.3,87.7c0.5-1,1.3-1,1.8,0l1.4,2.8c0.5,1,1.8,1.9,2.9,2.1l3.1,0.5c1.1,0.2,1.3,0.9,0.5,1.7l-2.2,2.2
	c-0.8,0.8-1.3,2.3-1.1,3.4l0.5,3.1c0.2,1.1-0.5,1.6-1.4,1l-2.8-1.5c-1-0.5-2.6-0.5-3.5,0l-2.8,1.5c-1,0.5-1.6,0-1.4-1l0.5-3.1
	c0.2-1.1-0.3-2.6-1.1-3.4l-2.2-2.2c-0.8-0.8-0.5-1.5,0.5-1.7l3.1-0.5c1.1-0.2,2.4-1.1,2.9-2.1L372.3,87.7z"/>
<g>
	<path class="st10" d="M60.4,203.4c0,1.1-0.9,2-2,2H24c-1.1,0-2-0.9-2-2v-23.5c0-1.1,0.9-2,2-2h34.4c1.1,0,2,0.9,2,2V203.4z"/>
	<polygon class="st11" points="29.9,202 55,202 46.9,183.1 41.2,194.1 37.6,191.6 	"/>
	<path class="st11" d="M33.5,186.8c0,1.4-1.2,2.6-2.6,2.6c-1.4,0-2.6-1.2-2.6-2.6c0-1.4,1.2-2.6,2.6-2.6
		C32.4,184.2,33.5,185.4,33.5,186.8z"/>
</g>
<g>
	<ellipse class="st6" cx="347.8" cy="136.3" rx="26.4" ry="20.3"/>
	<line class="st8" x1="363.6" y1="130" x2="333.6" y2="130"/>
	<line class="st8" x1="363.6" y1="136.3" x2="333.6" y2="136.3"/>
	<line class="st8" x1="363.6" y1="142.3" x2="333.6" y2="142.3"/>
	<polyline class="st6" points="329.5,149.3 329.5,164 337.7,151.7 329.5,149.2 	"/>
</g>
<g>
	<path class="st9" d="M109.9,218.7c0,0.3-0.2,0.7-0.6,0.7l-3.7,0.6c-0.2,0.6-0.5,1.2-0.8,1.8c0.7,1,1.4,1.9,2.1,2.8
		c0.1,0.1,0.2,0.3,0.2,0.5c0,0.2-0.1,0.3-0.2,0.5c-0.5,0.6-3.2,3.6-3.9,3.6c-0.2,0-0.4-0.1-0.5-0.2l-2.8-2.2
		c-0.6,0.3-1.2,0.6-1.8,0.8c-0.1,1.2-0.3,2.5-0.6,3.7c-0.1,0.3-0.4,0.6-0.7,0.6h-4.4c-0.4,0-0.7-0.3-0.7-0.6l-0.6-3.7
		c-0.6-0.2-1.2-0.4-1.8-0.7l-2.8,2.1c-0.1,0.1-0.3,0.2-0.5,0.2c-0.2,0-0.4-0.1-0.5-0.2c-1.1-1-2.5-2.2-3.3-3.4
		c-0.1-0.1-0.1-0.3-0.1-0.5c0-0.2,0.1-0.3,0.2-0.5c0.7-0.9,1.4-1.8,2.1-2.7c-0.3-0.6-0.6-1.3-0.8-2l-3.7-0.5
		c-0.3-0.1-0.6-0.4-0.6-0.7v-4.4c0-0.3,0.2-0.7,0.5-0.7l3.7-0.6c0.2-0.6,0.5-1.2,0.8-1.8c-0.7-1-1.4-1.9-2.1-2.8
		c-0.1-0.1-0.2-0.3-0.2-0.5c0-0.2,0.1-0.3,0.2-0.5c0.5-0.7,3.2-3.6,3.9-3.6c0.2,0,0.4,0.1,0.5,0.2l2.8,2.1c0.6-0.3,1.2-0.6,1.8-0.8
		c0.1-1.2,0.3-2.5,0.6-3.7c0.1-0.3,0.4-0.6,0.7-0.6h4.4c0.4,0,0.7,0.3,0.7,0.6l0.6,3.7c0.6,0.2,1.2,0.4,1.8,0.7l2.8-2.1
		c0.1-0.1,0.3-0.2,0.5-0.2c0.2,0,0.4,0.1,0.5,0.2c1.1,1,2.5,2.2,3.3,3.4c0.1,0.1,0.1,0.3,0.1,0.4c0,0.2-0.1,0.3-0.2,0.5
		c-0.7,0.9-1.4,1.8-2.1,2.7c0.3,0.6,0.6,1.3,0.8,2l3.7,0.6c0.3,0.1,0.6,0.4,0.6,0.7V218.7z M94.5,211.3c-2.8,0-5.1,2.3-5.1,5.1
		c0,2.8,2.3,5.1,5.1,5.1s5.1-2.3,5.1-5.1C99.6,213.7,97.3,211.3,94.5,211.3z"/>
</g>
<g>
	<path class="st7" d="M365.2,48.7c0,4-3.2,7.2-7.2,7.2c-4,0-7.2-3.2-7.2-7.2c0-4,3.2-7.2,7.2-7.2C362,41.6,365.2,44.8,365.2,48.7z"
		/>
	<g>
		<path class="st7" d="M326,52.3c0,1.9-1.5,3.4-3.4,3.4h-8.9c-1.9,0-3.4-1.5-3.4-3.4v-5.4c0-1.9,1.5-3.4,3.4-3.4h8.9
			c1.9,0,3.4,1.5,3.4,3.4V52.3z"/>
		<path class="st7" d="M326.3,73.9c0,0.8-0.7,1.5-1.5,1.5h-2.8c-0.8,0-1.5-0.7-1.5-1.5v-9.6c0-0.8,0.7-1.5,1.5-1.5h2.8
			c0.8,0,1.5,0.7,1.5,1.5V73.9z"/>
		<path class="st12" d="M328.9,61.1c0,1.9-1.5,3.4-3.4,3.4h-4.2c-1.9,0-3.4-1.5-3.4-3.4v-2.4c0-1.9,1.5-3.4,3.4-3.4h4.2
			c1.9,0,3.4,1.5,3.4,3.4V61.1z"/>
		<path class="st1" d="M333.4,55.3c0,1.8-1.5,3.3-3.4,3.3h-13.1c-1.9,0-3.4-1.5-3.4-3.3V43.3c0-1.8,1.5-3.3,3.4-3.3H330
			c1.9,0,3.4,1.5,3.4,3.3V55.3z"/>
		<polygon class="st7" points="356.7,70.5 330.8,58.6 330.8,40 356.7,26.8 		"/>
		<path class="st1" d="M358.9,69.7c0,0.9-0.7,1.7-1.6,1.7l0,0c-0.9,0-1.6-0.8-1.6-1.7V27.5c0-0.9,0.7-1.7,1.6-1.7l0,0
			c0.9,0,1.6,0.8,1.6,1.7V69.7z"/>
	</g>
	<g>
		<line class="st8" x1="373.2" y1="33.7" x2="366.6" y2="41"/>
		<line class="st8" x1="379.3" y1="42.7" x2="370.1" y2="45.8"/>
		<line class="st8" x1="379.3" y1="54.9" x2="370.1" y2="51.5"/>
		<line class="st8" x1="373.3" y1="63.8" x2="366.6" y2="56.7"/>
	</g>
</g>
<g>
	<g>
		<line class="st8" x1="376.2" y1="167.4" x2="375.6" y2="189.7"/>
		<path class="st7" d="M374.6,189.7c-0.1,2.5,2.6,4.5,5.9,4.6c3.3,0.1,6-1.9,6.1-4.3c0.1-2.5-2.6-4.5-5.9-4.6
			C377.4,185.3,374.7,187.3,374.6,189.7z"/>
	</g>
	<path class="st8" d="M376.1,167.4c0,0-5.5-0.4-7.9,3.1c-2.4,3.5,0,8,0,8"/>
</g>
<g>
	<g>
		<line class="st8" x1="129.8" y1="167.9" x2="130.2" y2="187.9"/>
		<path class="st7" d="M131.1,187.9c0.1,2.2-2.3,4-5.3,4.1c-3,0.1-5.4-1.7-5.4-3.9c-0.1-2.2,2.3-4,5.3-4.1
			C128.7,184,131.1,185.7,131.1,187.9z"/>
	</g>
	<path class="st8" d="M129.8,167.9c0,0,4.9-0.4,7.1,2.8c2.1,3.2,0,7.2,0,7.2"/>
</g>
<g>
	<path class="st13" d="M458,16.8l-22.6,21.2L412,16.8c-0.3,0.3-0.5,0.7-0.5,1.1v27.2c0,0.9,0.7,1.5,1.5,1.5H457
		c0.9,0,1.5-0.7,1.5-1.5V17.9C458.5,17.4,458.3,17,458,16.8z"/>
	<path class="st14" d="M442,31.8l-6.5-5.8l-6.8,5.8L412,46.2c0.3,0.3,0.7,0.4,1.1,0.4H457c0.4,0,0.8-0.2,1.1-0.5L442,31.8z"/>
	<path class="st15" d="M458,16.8c-0.3-0.3-0.7-0.4-1.1-0.4h-43.9c-0.4,0-0.8,0.2-1.1,0.4l23.4,21.2L458,16.8z"/>
</g>
<path class="st10" d="M85.1,22.4c-1.7-2-6-7.1-6.2-9.8c-0.2-2.7,0.7-6.5,0.5-6.8c-0.2-0.3-3.2-2.9-5.8,0.3c-2.7,3.8-2,7.2-1.8,9
	s1.5,6.3,1.5,6.3l0.2,0.1l-16.9,0c-1.8,0-3.2,1.4-3.2,3.2c0,1.8,1.4,3.2,3.2,3.2h1.6c-1.8,0-3.2,1.5-3.2,3.4c0,1.9,1.4,3.4,3.2,3.4
	h1.7c-1.8,0-3.2,1.4-3.2,3.2c0,1.8,1.4,3.2,3.2,3.2h1.5c-1.8,0-3.2,1.4-3.2,3.2s1.4,3.2,3.2,3.2h24.3c0.6,0,1.2-0.2,1.7-0.5l2.2-0.6
	V29.9v-2.9V26C89.6,26,86.8,24.4,85.1,22.4z"/>
<g>
	<rect x="86.8" y="21.2" class="st6" width="15.4" height="27.1"/>
	<path class="st7" d="M90.3,42.6c0,1,0.8,1.8,1.8,1.8c1,0,1.8-0.8,1.8-1.8c0-1-0.8-1.8-1.8-1.8C91.1,40.8,90.3,41.6,90.3,42.6z"/>
</g>
<path class="st6" d="M86.8,127.9c0.7-0.8,1.4-0.8,1.8-0.8c0.4,0,4.6,0,4.6,0l0-6.3c0,0-8.7-1.5-12.1,2.2c-2.8,3.1-2.2,8.9-2.2,11.8
	h-6.1v7h6.1c0,7.4-0.1,17.8-0.1,17.8H86c0,0,0-9.6,0-17.8h6.1l1-7H86c0-2.7,0-4.6,0-4.7C86,129.7,86.1,128.6,86.8,127.9z"/>
<g>
	<path class="st16" d="M297.8,144.5c0,10.4-9.2,18.8-20.5,18.8h-46.5c-11.3,0-20.5-8.4-20.5-18.8V66.8c0-10.4,9.2-18.8,20.5-18.8
		h46.5c11.3,0,16,9.4,16,19.8l4.5,9.1V144.5z"/>
	<g>
		<g>
			<path class="st17" d="M282,77.7v17.9c4.9,0,8.9-4,8.9-8.9S287,77.7,282,77.7z"/>
		</g>
		<g>
			<path class="st18" d="M284,81.6v10.2c2.8,0,5.1-2.3,5.1-5.1C289,83.9,286.8,81.6,284,81.6z"/>
		</g>
	</g>
	<g>
		<g>
			<path class="st17" d="M224.2,77.7v17.9c-4.9,0-8.9-4-8.9-8.9S219.2,77.7,224.2,77.7z"/>
		</g>
		<g>
			<path class="st18" d="M222.3,81.6v10.2c-2.8,0-5.1-2.3-5.1-5.1C217.2,83.9,219.4,81.6,222.3,81.6z"/>
		</g>
	</g>
	<path class="st18" d="M264.2,139.6c0,5.4-4.4,9.8-9.8,9.8l0,0c-5.4,0-9.8-4.4-9.8-9.8v-22.3c0-5.4,4.4-9.8,9.8-9.8l0,0
		c5.4,0,9.8,4.4,9.8,9.8V139.6z"/>
	<g>
		<path class="st19" d="M254.4,111.1c-5.4,0-9.8,4.4-9.8,9.8v7.5c3,1,6.1,1.6,9.4,1.6c3.6,0,7-0.7,10.2-1.9v-7.2
			C264.2,115.5,259.8,111.1,254.4,111.1z"/>
	</g>
	<ellipse class="st17" cx="252.9" cy="89.9" rx="32.2" ry="37.4"/>
	<path class="st20" d="M247.4,83.3c-0.7-1.3-1.5-2.3-2.4-3.1c-0.9-0.8-2-1.2-3.1-1.3c-1.1-0.1-2.1,0.1-3.1,0.5
		c-0.5,0.2-1,0.5-1.4,0.9c-0.4,0.3-0.9,0.8-1.2,1.2l-0.2,0.3c-0.4,0.5-1.2,0.6-1.7,0.2c-0.1-0.1-0.2-0.2-0.3-0.3
		c-0.3-0.5-0.6-1.1-0.8-1.6c-0.2-0.6-0.4-1.2-0.4-1.9c0.7,0.2,1.3,0.4,1.8,0.8c0.5,0.3,1,0.7,1.5,1.1l-2.2,0.1
		c0.5-0.8,1-1.3,1.6-1.9c0.6-0.5,1.3-1,2-1.4c1.5-0.8,3.4-0.9,5-0.5c1.6,0.4,3.1,1.4,3.9,2.8C247.2,80.3,247.5,81.8,247.4,83.3z"/>
	<path class="st20" d="M260.1,83.3c-0.1-1.4,0.2-3,1.1-4.3c0.9-1.3,2.3-2.4,3.9-2.8c1.6-0.4,3.5-0.3,5,0.5c0.8,0.4,1.4,0.8,2,1.4
		c0.6,0.6,1.1,1.1,1.6,1.9l-2.2-0.1c0.4-0.4,0.9-0.8,1.5-1.1c0.5-0.3,1.1-0.6,1.8-0.8c0,0.7-0.2,1.4-0.4,1.9
		c-0.2,0.6-0.5,1.1-0.8,1.6c-0.3,0.6-1.1,0.8-1.7,0.4c-0.1-0.1-0.2-0.2-0.3-0.3l-0.2-0.3c-0.3-0.4-0.8-0.8-1.2-1.2
		c-0.4-0.4-0.9-0.7-1.4-0.9c-1-0.5-2-0.7-3.1-0.5c-1.1,0.1-2.2,0.5-3.1,1.3C261.6,80.9,260.8,82,260.1,83.3z"/>
	<path class="st21" d="M250.1,93.8c0.2-1,0.7-1.8,1.4-2.5c0.7-0.7,1.7-1.2,2.9-1.2c1.1,0,2.1,0.5,2.8,1.2c0.7,0.7,1.2,1.5,1.4,2.4
		c-0.9-0.4-1.6-0.8-2.3-1.1c-0.7-0.3-1.4-0.5-2-0.5c-0.6,0-1.2,0.1-2,0.5C251.7,92.9,251,93.3,250.1,93.8z"/>
	<path class="st18" d="M283,76.3c-6.2-1.3-13.4-3.4-19-6.9c-9.1-5.6-15.1-12.5-17.9-16.2c-1.3-1.6-1.9-2.7-1.9-2.7s0,1.4-0.6,3.4
		c-1,3.6-4,9.4-12.5,13.4c-2.2,1-4.2,2.2-6,3.5c-0.9,1.8-1.7,3.6-2.3,5.5c2.6-2.2,5.7-4.2,9.2-5.9c13.2-6.3,13-16.8,13-16.8
		s6.7,10.8,19.8,18.8c5.7,3.5,12.8,5.6,19,6.9C283.7,78.4,283.4,77.3,283,76.3z"/>
	<path class="st22" d="M244.1,50.8c0,0,0.2,10.5-13,16.8c-13.2,6.3-20.9,24.2-20.9,24.2s-12.5-65.4,42.9-66
		c47-0.6,44.7,52.6,44.7,52.6s-20.8-0.7-33.9-8.8C250.9,61.6,244.1,50.8,244.1,50.8z"/>
	<path class="st23" d="M258.9,107.1c0,3.4-2,6.2-4.6,6.2s-4.6-2.8-4.6-6.2c0-3.4,2-6.2,4.6-6.2S258.9,103.7,258.9,107.1z"/>
	<g>
		<path class="st18" d="M259.5,135.5h-10.1c-16.8,0-30.4,13.6-30.4,30.4V180h70.9v-14.1C289.9,149.1,276.3,135.5,259.5,135.5z"/>
	</g>
	<path class="st24" d="M289.9,165.9c0-14.1-9.6-25.9-22.5-29.4c0.1,0.7,0.2,1.4,0.2,2.1c0,7.2-13.1,30.1-13.1,30.1
		s-13.1-22.8-13.1-30.1c0-0.7,0.1-1.4,0.2-2.1c-13,3.5-22.5,15.3-22.5,29.4V180h70.9V165.9z"/>
	<rect x="219" y="167.6" class="st17" width="14.2" height="12.4"/>
	<rect x="275.7" y="167.6" class="st17" width="14.2" height="12.4"/>
	<g>
		<path class="st25" d="M215.2,86.7c0,3.8,2.4,7.1,5.8,8.4c0,0,0-0.1,0-0.1c-2.8-1.5-4.8-4.5-4.8-7.9c0-3.9,2.5-7.2,6-8.4
			c0.1-0.2,0.1-0.4,0.2-0.7C218.3,78.8,215.2,82.4,215.2,86.7z"/>
		<path class="st22" d="M215.2,86.7c0-4.3,3.1-7.9,7.1-8.8c0.7-2.5,1.6-4.8,2.8-7c0-5.8-3.6-10.4-8-10.4c-4.4,0-8,4.7-8,10.5v80.6
			c0,5.8,3.6,10.5,8,10.5c4.4,0,8-4.7,8-10.5v-42.8c-2.1-4.1-3.5-8.8-4.1-13.8C217.6,93.8,215.2,90.5,215.2,86.7z"/>
	</g>
	<g>
		<path class="st25" d="M290.6,86.9c0,3.8-2.4,7.1-5.8,8.4c0,0,0-0.1,0-0.1c2.8-1.5,4.8-4.5,4.8-7.9c0-3.9-2.5-7.2-6-8.4
			c-0.1-0.2-0.1-0.4-0.2-0.7C287.5,79,290.6,82.6,290.6,86.9z"/>
		<path class="st22" d="M290.6,86.9c0-4.3-3.1-7.9-7.1-8.8c-0.7-2.5-1.6-4.8-2.8-7c0-5.8,3.6-10.4,8-10.4c4.4,0,9.2,11,9.2,16.7
			v73.3c0,5.8-4.8,11.6-9.2,11.6c-4.4,0-8-4.7-8-10.5V109c2.1-4.1,3.5-8.8,4.1-13.8C288.2,94,290.6,90.7,290.6,86.9z"/>
	</g>
	<path class="st7" d="M242.1,136.4l12.3,32.3l-17.1-14.4l4.4-5.8l-11.7-6.1c0,0,1.6-1.6,5.3-3.5S242.1,136.4,242.1,136.4z"/>
	<path class="st7" d="M266.9,136.4l-12.4,32.3l17.1-14.3l-4.4-5.8l11.9-6.1c0,0-1.6-1.6-5.4-3.6S266.9,136.4,266.9,136.4z"/>
	<rect x="219" y="167" class="st7" width="14.2" height="3.7"/>
	<rect x="275.7" y="167" class="st7" width="14.2" height="3.7"/>
</g>
<g>
	<g>
		<path class="st6" d="M430,99.7c-1,0.5-2.2,0.8-3.4,0.9c1.2-0.7,2.1-1.9,2.6-3.2c-1.1,0.7-2.4,1.2-3.7,1.4
			c-1.1-1.1-2.6-1.8-4.3-1.8c-3.2,0-5.8,2.6-5.8,5.8c0,0.5,0.1,0.9,0.2,1.3c-4.9-0.2-9.2-2.6-12-6.1c-0.5,0.9-0.8,1.9-0.8,2.9
			c0,2,1,3.8,2.6,4.9c-1,0-1.9-0.3-2.6-0.7v0.1c0,2.8,2,5.2,4.7,5.7c-0.5,0.1-1,0.2-1.5,0.2c-0.4,0-0.7,0-1.1-0.1
			c0.7,2.3,2.9,4,5.5,4.1c-2,1.6-4.5,2.5-7.3,2.5c-0.5,0-0.9,0-1.4-0.1c2.6,1.7,5.7,2.6,9,2.6c10.8,0,16.6-8.9,16.6-16.6l0-0.8
			C428.3,101.9,429.3,100.9,430,99.7z"/>
	</g>
</g>
</svg>
