<?xml version="1.0" standalone="no"?>
<!DOCTYPE svg PUBLIC "-//W3C//DTD SVG 20010904//EN"
 "http://www.w3.org/TR/2001/REC-SVG-20010904/DTD/svg10.dtd">
<svg version="1.0" xmlns="http://www.w3.org/2000/svg"
 width="260.000000pt" height="260.000000pt" viewBox="0 0 260.000000 260.000000"
 preserveAspectRatio="xMidYMid meet">
<metadata>
Created by potrace 1.11, written by Peter Selinger 2001-2013
</metadata>
<g transform="translate(0.000000,260.000000) scale(0.100000,-0.100000)"
fill="#000000" stroke="none">
<path d="M775 2321 c-3 -6 -12 -11 -18 -9 -23 4 -113 -13 -192 -37 -223 -67
-400 -241 -493 -481 -52 -135 -69 -245 -71 -455 l-2 -185 718 0 718 0 -3 -54
c-16 -286 -217 -485 -530 -525 l-53 -7 3 -141 3 -142 65 1 c104 2 172 14 270
48 161 57 283 154 381 304 45 68 106 206 116 261 2 14 6 28 8 32 3 4 7 24 10
45 3 22 9 46 12 54 3 8 7 113 9 234 3 252 6 280 39 385 70 221 239 353 483
377 l62 6 0 -439 0 -439 145 0 145 0 -2 585 -3 586 -155 1 c-99 1 -160 -3
-169 -10 -12 -9 -13 -8 -6 3 6 11 5 12 -6 5 -8 -4 -21 -9 -29 -11 -8 -1 -35
-5 -60 -8 -75 -10 -191 -45 -266 -80 -295 -135 -455 -384 -467 -727 -1 -27 -6
-48 -12 -49 -30 -3 -1112 -4 -1122 -1 -15 4 -9 94 12 174 44 174 176 310 355
367 64 20 82 24 164 36 l42 7 -2 141 c-1 78 -2 145 -3 150 -1 10 -61 5 -68 -6
-3 -5 -9 -4 -13 3 -5 9 -9 9 -15 1z"/>
</g>
</svg>
