<?xml version="1.0" encoding="utf-8"?>
<!-- Generator: Adobe Illustrator 22.0.1, SVG Export Plug-In . SVG Version: 6.00 Build 0)  -->
<svg version="1.1" id="Layer_1" xmlns="http://www.w3.org/2000/svg" xmlns:xlink="http://www.w3.org/1999/xlink" x="0px" y="0px"
	 viewBox="0 0 855.3 476.6" style="enable-background:new 0 0 855.3 476.6;" xml:space="preserve">
<style type="text/css">
	.st0{fill:#45526C;}
	.st1{fill:#47536C;}
	.st2{fill:#5D697C;}
	.st3{fill:#EDFAFD;}
	.st4{fill:#42DAED;}
	.st5{fill:#2EC1CC;}
	.st6{fill:#FA9E27;}
	.st7{fill:#FFFFFF;}
	.st8{fill:#F2F1F0;}
	.st9{fill:#41DAEE;}
	.st10{fill:#46526C;}
</style>
<g>
	<rect x="0" y="449.2" class="st0" width="855.3" height="9.9"/>
</g>
<g>
	<path class="st1" d="M501.8,218.8c-0.4,0-0.7-0.1-1.1-0.2c-1.6-0.6-2.4-2.4-1.8-3.9l13.8-37.5c0.6-1.6,2.4-2.4,4-1.8
		s2.4,2.4,1.8,3.9l-13.8,37.5C504.2,218,503,218.8,501.8,218.8z"/>
</g>
<g>
	<path class="st1" d="M555.4,223.6c-1.3,0-2.5-0.9-2.7-2.3l-6.1-32c-0.3-1.5,0.7-3,2.2-3.2c1.5-0.3,3,0.7,3.2,2.2l6.1,32
		c0.3,1.5-0.7,3-2.2,3.2C555.8,223.6,555.6,223.6,555.4,223.6z"/>
</g>
<g>
	<path class="st1" d="M458.6,182.4c-0.8,0-1.6-0.3-2.1-1c-1-1.2-0.8-2.9,0.4-3.9l25-20.8c1.2-1,2.9-0.8,3.9,0.4
		c1,1.2,0.8,2.9-0.4,3.9l-25,20.8C459.8,182.2,459.2,182.4,458.6,182.4z"/>
</g>
<g>
	<g>
		<polygon class="st1" points="696,425.7 807.9,196.3 814.6,199.6 708.1,417.9 719.5,417.7 832,187.3 838.7,190.5 724.2,425 		"/>
	</g>
	<g>
		<path class="st1" d="M788.6,458.8H634.4l-0.4-4c-0.1-0.6-1.4-15.9,8.2-26.5c5.7-6.3,14-9.5,24.4-9.5c0,0,0,0,0,0l0,0l0,0l89.7,0
			c11.1,0,19.6,3.3,25.3,9.9c9.3,10.6,7.5,25.6,7.4,26.2L788.6,458.8z M642.7,450.1h137.8c-0.1-4.1-1.1-10.7-5.4-15.6
			c-4-4.5-10.3-6.9-18.7-6.9l-89.7,0c-7.9,0-14,2.2-18,6.6C644.2,439.1,643,445.9,642.7,450.1z"/>
	</g>
	<g>
		<g>
			<line class="st1" x1="587.4" y1="41.3" x2="618.5" y2="55.1"/>
			<path class="st2" d="M618.5,60c-0.7,0-1.3-0.1-2-0.4l-31.1-13.8c-2.5-1.1-3.6-4-2.5-6.4c1.1-2.5,4-3.6,6.4-2.5l31.1,13.8
				c2.5,1.1,3.6,4,2.5,6.4C622.1,58.9,620.4,60,618.5,60z"/>
		</g>
		<g>
			
				<rect x="710.5" y="9.6" transform="matrix(0.5869 -0.8097 0.8097 0.5869 191.1603 631.2612)" class="st1" width="7.5" height="237.4"/>
		</g>
		<g>
			
				<rect x="729.2" y="-2.7" transform="matrix(0.5806 -0.8142 0.8142 0.5806 209.5527 647.0518)" class="st1" width="7.5" height="245.5"/>
		</g>
		<g>
			<path class="st3" d="M835.8,197.6c-1.9,9.8-11.6,16.1-21.6,14.1c-10-2-16.5-11.5-14.6-21.2c1.9-9.8,11.6-16.1,21.6-14.1
				C831.2,178.3,837.7,187.8,835.8,197.6z"/>
			<path class="st2" d="M817.9,215.8c-1.5,0-2.9-0.1-4.4-0.4c-5.8-1.1-10.8-4.4-14.1-9.2c-3.3-4.8-4.5-10.7-3.4-16.4
				c2.3-11.8,14-19.4,26-17.1c12,2.4,19.9,13.9,17.6,25.6c-1.1,5.7-4.5,10.6-9.4,13.9C826.4,214.5,822.2,215.8,817.9,215.8z
				 M817.6,179.7c-6.8,0-12.9,4.7-14.3,11.5c-0.7,3.7,0.1,7.5,2.3,10.7c2.2,3.2,5.5,5.4,9.4,6.2c3.9,0.8,7.8,0,11.1-2.1
				c3.2-2.1,5.4-5.3,6.1-9.1c0,0,0,0,0,0c1.5-7.7-3.7-15.3-11.7-16.9C819.5,179.8,818.5,179.7,817.6,179.7z"/>
		</g>
		<g>
			<path class="st3" d="M652.6,64.2c-1.9,9.8-11.6,16.1-21.6,14.1c-10-2-16.5-11.5-14.6-21.3C618.4,47.3,628,41,638,42.9
				C648,44.9,654.5,54.4,652.6,64.2z"/>
			<path class="st2" d="M634.7,82.4c-1.4,0-2.9-0.1-4.4-0.4c-5.8-1.1-10.8-4.4-14.1-9.2c-3.3-4.9-4.6-10.7-3.4-16.4
				c2.3-11.8,14-19.4,26-17.1c12,2.4,19.9,13.9,17.6,25.6l0,0C654.2,75.2,645,82.4,634.7,82.4z M634.4,46.3
				c-6.8,0-12.9,4.7-14.3,11.5c-0.7,3.7,0.1,7.5,2.3,10.7c2.2,3.2,5.5,5.4,9.4,6.2c7.9,1.6,15.7-3.4,17.2-11.2l0,0
				c1.5-7.7-3.7-15.3-11.7-16.9C636.3,46.4,635.3,46.3,634.4,46.3z M652.6,64.2L652.6,64.2L652.6,64.2z"/>
		</g>
	</g>
	<g>
		<g>
			<g>
				<g>
					<path class="st4" d="M589.1,65.6l6,98.6c0.2,4-2.6,6.1-6.4,4.7l-118.7-46.6c-3.8-1.5-4.4-4.9-1.3-7.6L544,47.9"/>
				</g>
			</g>
			<g>
				<g>
					<path class="st1" d="M591,173.7c-1.3,0-2.6-0.3-3.9-0.8l-118.7-46.6c-3.2-1.3-5.4-3.7-5.9-6.6c-0.5-2.9,0.7-6,3.3-8.3
						l75.4-66.8l5.8,6.5L471.5,118c-0.1,0.1-0.1,0.1-0.2,0.2c0.1,0,0.1,0.1,0.2,0.1l118.7,46.6c0.2,0.1,0.3,0.1,0.5,0.1
						c0-0.1,0-0.3,0-0.5l-6-98.6l8.7-0.5l6,98.6c0.2,3.4-1.1,6.4-3.5,8.2C594.5,173.2,592.8,173.7,591,173.7z"/>
				</g>
			</g>
		</g>
		<g>
			<g>
				<path class="st5" d="M601,37.8c5.2-12.5-0.7-26.6-13.3-31.6c-12.6-4.9-27.1,1.2-32.3,13.6l-11.8,28.1L589.3,66L601,37.8z"/>
			</g>
			<g>
				<path class="st1" d="M591.6,71.6l-53.7-21.1l13.5-32.2c6.1-14.6,23.1-21.8,37.9-16c7.2,2.8,12.8,8.3,15.8,15.3c3,7,3,14.9,0,22
					L591.6,71.6z M549.4,45.6l37.5,14.7L597,36.1c2.1-4.9,2.1-10.3,0-15.2c-2.1-4.9-5.9-8.6-10.9-10.6c-10.4-4.1-22.4,1-26.7,11.3
					L549.4,45.6z"/>
			</g>
		</g>
	</g>
</g>
<g>
	<g>
		<g>
			<path class="st6" d="M401.1,115.4c0-14.4-11.6-26.2-25.8-26.2l-64.4,0.1L182,89.5l-64.4,0.1c-14.2,0-25.8,11.9-25.7,26.3
				l0.6,328.2c0,14.4,11.6,26.2,25.8,26.2l257.7-0.5c14.2,0,25.8-11.9,25.7-26.3L401.1,115.4z M118.2,444.1l-0.6-328.2l38.7-0.1
				l180.4-0.3l38.7-0.1l0.6,328.2L118.2,444.1z"/>
		</g>
	</g>
	<g>
		<path class="st7" d="M285,76.2l-20.5,0c-2.7-7.6-9.8-13.1-18.2-13.1c-8.4,0-15.5,5.5-18.1,13.2l-20.5,0
			c-14.2,0-25.8,11.8-25.7,26.3l0,26.3l128.9-0.2l0-13.1l0-13.1C310.8,87.9,299.3,76.2,285,76.2z"/>
	</g>
	<g>
		<rect x="182" y="108.7" class="st7" width="128.9" height="20.1"/>
	</g>
	<g>
		<path class="st0" d="M407.1,115.4c0-17.8-14.3-32.3-31.8-32.3c0,0,0,0-0.1,0l-64.4,0.1c-0.1,0-0.1,0-0.2,0
			c-5.8-7.9-15.1-13.1-25.6-13.1l-16.7,0c-4.5-8-12.8-13.1-22-13.1c-9.2,0-17.5,5.2-22,13.2l-16.7,0c-8.5,0-16.5,3.4-22.5,9.5
			c-1.1,1.1-2.2,2.4-3.1,3.7c-0.1,0-0.1,0-0.2,0c0,0,0,0,0,0l-64.4,0.1c-8.5,0-16.4,3.4-22.5,9.6c-6,6.1-9.3,14.3-9.3,22.9
			l0.6,328.2c0,8.6,3.3,16.8,9.4,22.9c6,6.1,14,9.5,22.4,9.5c0,0,0,0,0.1,0L376,476c17.5,0,31.8-14.6,31.8-32.5L407.1,115.4z
			 M193.8,88.4c3.7-3.8,8.7-5.9,13.9-5.9l20.5,0c2.6,0,4.8-1.6,5.7-4.1c1.9-5.4,6.9-9,12.5-9.1c5.6,0,10.6,3.6,12.4,9
			c0.9,2.4,3.1,4.1,5.7,4.1c0,0,0,0,0,0l20.6,0c10.9,0,19.7,9,19.7,20.1l0,20.1l-116.8,0.2l0-20.1C188,97.3,190.1,92.2,193.8,88.4z
			 M375.9,463.7l-257.7,0.5c-5.3,0-10.2-2.1-13.9-5.9c-3.7-3.8-5.8-8.8-5.8-14.2l-0.6-328.2c0-5.3,2-10.4,5.8-14.2s8.7-5.9,13.9-5.9
			l59.1-0.1c-0.5,2.3-0.7,4.6-0.7,7l0,26.3c0,3.4,2.7,6.1,6,6.1c0,0,0,0,0,0l128.9-0.2c3.3,0,6-2.8,6-6.2l0-26.3
			c0-2.4-0.3-4.7-0.8-7l59.1-0.1c0,0,0,0,0,0c10.9,0,19.7,9,19.7,20.1l0.6,328.2C395.7,454.6,386.8,463.7,375.9,463.7z"/>
	</g>
	<g>
		<path class="st0" d="M375.3,109.3C375.3,109.3,375.3,109.3,375.3,109.3l-38.7,0.1c-3.3,0-6,2.8-6,6.2c0,3.4,2.7,6.1,6,6.1
			c0,0,0,0,0,0l32.6-0.1l0.6,315.9l-245.6,0.5L123.6,122l32.6-0.1c3.3,0,6-2.8,6-6.2c0-3.4-2.7-6.1-6-6.1c0,0,0,0,0,0l-38.7,0.1
			c-1.6,0-3.1,0.7-4.3,1.8c-1.1,1.2-1.8,2.7-1.8,4.4l0.6,328.2c0,1.6,0.6,3.2,1.8,4.3c1.1,1.1,2.7,1.8,4.3,1.8c0,0,0,0,0,0
			l257.7-0.5c1.6,0,3.1-0.7,4.3-1.8c1.1-1.2,1.8-2.7,1.8-4.4l-0.6-328.2C381.3,112,378.6,109.3,375.3,109.3z"/>
	</g>
	<g>
		<path class="st0" d="M246.4,95.6c1.6,0,3.1-0.7,4.3-1.8c1.1-1.1,1.8-2.7,1.8-4.3c0-1.6-0.6-3.2-1.8-4.4c-1.1-1.1-2.7-1.8-4.3-1.8
			c-1.6,0-3.1,0.7-4.3,1.8c-1.1,1.1-1.8,2.7-1.8,4.4c0,1.6,0.6,3.2,1.8,4.3C243.2,94.9,244.8,95.6,246.4,95.6z"/>
	</g>
	<g>
		<path class="st0" d="M145.7,210c-2.4,2.4-2.3,6.3,0,8.7l19.4,19.7c1.1,1.1,2.7,1.8,4.3,1.8c0,0,0,0,0,0c1.6,0,3.1-0.7,4.3-1.8
			l32.2-32.9c2.4-2.4,2.3-6.3,0-8.7c-2.4-2.4-6.2-2.4-8.5,0l-27.9,28.5l-15.1-15.3C151.9,207.5,148.1,207.6,145.7,210z"/>
	</g>
	<g>
		<path class="st0" d="M197.3,268.9l-27.9,28.5l-15.1-15.3c-2.4-2.4-6.2-2.4-8.5,0c-2.4,2.4-2.3,6.3,0,8.7l19.4,19.7
			c1.2,1.2,2.7,1.8,4.3,1.8c1.5,0,3.1-0.6,4.3-1.8l32.2-32.9c2.4-2.4,2.3-6.3,0-8.7C203.5,266.5,199.7,266.5,197.3,268.9z"/>
	</g>
	<g>
		<path class="st0" d="M197.5,341.1l-27.9,28.5l-15.1-15.3c-2.4-2.4-6.2-2.4-8.5,0c-2.4,2.4-2.3,6.3,0,8.7l19.4,19.7
			c1.1,1.1,2.7,1.8,4.3,1.8c0,0,0,0,0,0c1.6,0,3.1-0.7,4.3-1.8l32.2-32.9c2.4-2.4,2.3-6.3,0-8.7
			C203.7,338.7,199.8,338.7,197.5,341.1z"/>
	</g>
	<g>
		<path class="st0" d="M233.7,220.3C233.7,220.3,233.7,220.3,233.7,220.3l109.5-0.2c3.3,0,6-2.8,6-6.2c0-3.4-2.7-6.1-6-6.1
			c0,0,0,0,0,0L233.7,208c-3.3,0-6,2.8-6,6.2C227.7,217.5,230.4,220.3,233.7,220.3z"/>
	</g>
	<g>
		<path class="st0" d="M343.4,280C343.4,280,343.4,280,343.4,280l-109.5,0.2c-3.3,0-6,2.8-6,6.2c0,3.4,2.7,6.1,6,6.1c0,0,0,0,0,0
			l109.5-0.2c3.3,0,6-2.8,6-6.2C349.4,282.7,346.7,280,343.4,280z"/>
	</g>
	<g>
		<path class="st0" d="M343.5,352.2L234,352.4c-3.3,0-6,2.8-6,6.2c0,3.4,2.7,6.1,6,6.1c0,0,0,0,0,0l109.5-0.2c3.3,0,6-2.8,6-6.2
			C349.6,354.9,346.9,352.2,343.5,352.2C343.5,352.2,343.5,352.2,343.5,352.2z"/>
	</g>
</g>
<g>
	<g>
		<path class="st7" d="M605.7,294.4l-53-23.3h-81.9c0,0-5.8,32.2,14.6,32.2l35.1,0.3l-117-0.3c-6.3,0-11.7,7-11.7,15
			c0,8.1,5.3,14.2,11.7,14.2l53.7,0.2c-5.5,1.2-9.8,7.6-9.8,14.8c0,8.1,5.4,14.2,11.7,14.2c-6.3,0-11.7,7-11.7,15
			c0,8.1,5.4,14.2,11.7,14.2c-6.3,0-11.7,7-11.7,15c0,8.1,5.1,14.6,11.5,14.6h131.8l15-7.5l20.1-10v-99.8L605.7,294.4z"/>
	</g>
	<g>
		<polygon class="st8" points="625.7,303.2 605.7,294.4 605.7,413.1 625.7,403.1 		"/>
	</g>
	<g>
		<polygon class="st9" points="630.1,296.3 630.1,307.6 630.1,361.1 630.1,407.5 630.1,425 748.9,425 746,361.1 746,296.3 		"/>
	</g>
	<g>
		<path class="st10" d="M621.3,287.5v8.9l-67.8-29.8h-86.5l-0.7,3.6c0,0.2-0.9,5.2-0.8,11.3c0.1,7.2,1.5,13.1,4.1,17.4l-66.2-0.1
			c-8.7,0-16.1,8.9-16.1,19.4c0,10.4,7.1,18.6,16.1,18.6l42.1,0.2c-1.7,3.1-2.6,6.7-2.6,10.5c0,5.9,2.2,11,5.8,14.4
			c-3.5,3.6-5.8,9-5.8,14.8c0,5.9,2.2,11,5.8,14.4c-3.5,3.6-5.8,9-5.8,14.8c0,10.5,7.1,19,15.9,19h132.8l29.7-14.8V425h134.7V287.5
			H621.3z M589.6,416.2H458.8c-3.8,0-7.1-4.7-7.1-10.2c0-6.1,3.9-10.6,7.3-10.6h23.4v-8.8h-23.4c-4,0-7.3-4.4-7.3-9.8
			c0-6.1,3.9-10.6,7.3-10.6h23.4v-8.8h-23.4c-4,0-7.3-4.4-7.3-9.8c0-5.4,3-9.5,6-10.4l21.8,0.1l0-8.8l-76-0.3c-4,0-7.3-4.4-7.3-9.8
			c0-6.1,3.9-10.6,7.3-10.6l117,0.3l0-8.8l-35.1-0.3c-3.2,0-5.5-1-7.2-3c-4-4.8-4.1-14.4-3.6-20.3h77.1l69.6,30.6v94.2L589.6,416.2z
			 M746,416.2H630.1V296.3H746V416.2z"/>
	</g>
</g>
</svg>
