<svg xmlns="http://www.w3.org/2000/svg" xmlns:xlink="http://www.w3.org/1999/xlink" id="Layer_1" x="0" y="0" version="1.1" viewBox="0 0 645.4 144" xml:space="preserve" style="enable-background:new 0 0 645.4 144"><style type="text/css">.st0{fill:#009cc6}.st1{fill:#f99f28}.st2{fill:#fff}</style><g><path d="M61.7,61.8h-0.8H20.8c0-40.9,40.9-40.9,40.9-40.9V10.7V0.4C0.3,0.4,0.3,61.8,0.3,61.8v20.5h60.6h0.8h40V61.8 H61.7z" class="st0"/><path d="M121.4,82.3H101c0,40.9-40.9,40.9-40.9,40.9v10.2v10.2C121.5,143.7,121.5,82.3,121.4,82.3" class="st0"/><path d="M162.4,0.4c0,0-61.4,0-61.4,61.4v20.5h0.1h20.4V61.8c0,0,0-40.9,40.9-40.9v33v7.9v20.5h20.5V61.8v-7.9V0.4 H162.4z" class="st1"/></g><g><path d="M200.6,71.5c0.5,2.5,1.5,4.2,2.8,5.2c1.4,1,3.3,1.5,5.8,1.5c1.2,0,2.3-0.1,3.2-0.4c0.9-0.3,1.6-0.7,2.2-1.2 c0.6-0.5,1-1.1,1.3-1.7c0.3-0.6,0.4-1.3,0.4-2c0-1.4-0.5-2.4-1.4-3.1c-0.9-0.7-2-1.2-3.4-1.6c-1.4-0.4-2.8-0.7-4.4-1 c-1.6-0.3-3.1-0.7-4.4-1.2c-1.4-0.6-2.5-1.3-3.4-2.4c-0.9-1-1.4-2.5-1.4-4.3c0-2.4,0.9-4.3,2.6-5.9c1.8-1.5,4.2-2.3,7.5-2.3 c3.1,0,5.6,0.7,7.6,2.1c1.9,1.4,3.1,3.7,3.5,6.9h-3.4c-0.3-2.2-1.1-3.8-2.5-4.7c-1.4-0.9-3.1-1.3-5.2-1.3c-2.1,0-3.7,0.4-4.8,1.3 c-1.1,0.9-1.7,2.1-1.7,3.6c0,1.3,0.5,2.3,1.4,2.9c0.9,0.7,2,1.2,3.4,1.7c1.4,0.4,2.8,0.8,4.4,1.1c1.6,0.3,3.1,0.8,4.4,1.4 c1.4,0.6,2.5,1.4,3.4,2.5c0.9,1,1.4,2.5,1.4,4.3c0,1.4-0.3,2.6-0.9,3.6c-0.6,1-1.4,1.9-2.4,2.6c-1,0.7-2.3,1.2-3.7,1.6 c-1.4,0.3-3,0.5-4.7,0.5c-1.7,0-3.2-0.2-4.5-0.7c-1.3-0.5-2.4-1.2-3.4-2.1c-0.9-0.9-1.6-1.9-2.2-3.1c-0.5-1.2-0.8-2.4-0.9-3.8 H200.6z" class="st2"/><path d="M244.2,81.2c-1.9,0-3.6-0.4-5.2-1c-1.6-0.6-3-1.6-4.2-2.8c-1.2-1.2-2.2-2.8-2.9-4.7c-0.7-1.9-1.1-4.1-1.1-6.6 c0-2.1,0.3-4,0.8-5.9c0.6-1.8,1.4-3.4,2.5-4.8c1.1-1.4,2.5-2.4,4.2-3.2c1.7-0.8,3.6-1.2,5.8-1.2c2.3,0,4.2,0.4,5.9,1.2 c1.7,0.8,3.1,1.9,4.2,3.2c1.1,1.3,1.9,2.9,2.5,4.8c0.5,1.8,0.8,3.8,0.8,5.9c0,2.3-0.3,4.3-0.9,6.2c-0.6,1.8-1.5,3.4-2.7,4.7 s-2.6,2.3-4.2,3.1C248,80.8,246.2,81.2,244.2,81.2z M253.9,66.1c0-1.7-0.2-3.3-0.6-4.7c-0.4-1.5-0.9-2.7-1.7-3.8 c-0.8-1.1-1.8-1.9-3-2.6c-1.2-0.6-2.7-0.9-4.5-0.9c-1.7,0-3.2,0.3-4.5,1c-1.2,0.7-2.2,1.6-3,2.7c-0.8,1.1-1.4,2.4-1.7,3.9 c-0.4,1.5-0.6,2.9-0.6,4.5c0,1.8,0.2,3.4,0.6,4.9c0.4,1.5,1,2.8,1.9,3.8c0.8,1.1,1.8,1.9,3.1,2.5c1.2,0.6,2.6,0.9,4.2,0.9 c1.7,0,3.2-0.3,4.5-1c1.2-0.7,2.2-1.6,3-2.7c0.8-1.1,1.4-2.4,1.7-3.9C253.7,69.2,253.9,67.7,253.9,66.1z" class="st2"/><path d="M290.5,60.9c-0.6-2.1-1.6-3.8-3.1-5c-1.4-1.2-3.3-1.8-5.5-1.8c-1.7,0-3.2,0.3-4.4,1c-1.2,0.7-2.2,1.6-3,2.8 s-1.4,2.5-1.7,3.9c-0.4,1.4-0.6,2.9-0.6,4.4c0,1.5,0.2,3,0.5,4.4c0.4,1.4,0.9,2.7,1.7,3.9c0.8,1.1,1.8,2,3,2.7c1.2,0.7,2.7,1,4.4,1 c2.5,0,4.5-0.7,6-2c1.5-1.4,2.5-3.2,2.9-5.6h3.6c-0.3,1.6-0.8,3-1.4,4.3c-0.6,1.3-1.5,2.4-2.5,3.4c-1,0.9-2.2,1.7-3.6,2.2 c-1.4,0.5-3,0.8-4.8,0.8c-2.3,0-4.3-0.4-5.9-1.2c-1.7-0.8-3-1.8-4.1-3.2c-1.1-1.3-1.9-2.9-2.4-4.8c-0.5-1.8-0.8-3.8-0.8-5.9 c0-2,0.3-3.9,0.9-5.7c0.6-1.8,1.4-3.4,2.5-4.8c1.1-1.4,2.5-2.5,4.1-3.3c1.6-0.8,3.5-1.2,5.7-1.2c3.3,0,6,0.8,8.1,2.4 c2.1,1.6,3.3,4,3.9,7.4H290.5z" class="st2"/><path d="M306.7,45.7v-4.9h3.7v4.9H306.7z M306.9,80.4V51.9h3.3v28.5H306.9z" class="st2"/><path d="M337.6,63.8c0.6-0.1,1.4-0.2,2.2-0.3c0.9-0.1,1.6-0.3,2.1-0.6c0.6-0.3,0.9-0.7,1-1.3c0.1-0.6,0.2-1.2,0.2-1.7 c0-1.7-0.5-3.1-1.6-4.2c-1.1-1.1-2.9-1.6-5.5-1.6c-1.1,0-2.2,0.1-3.2,0.3c-1,0.2-1.8,0.6-2.5,1s-1.3,1.2-1.8,2 c-0.5,0.8-0.8,1.9-0.9,3.1h-3.4c0.1-1.7,0.5-3.1,1.2-4.3c0.7-1.2,1.5-2.2,2.6-2.9c1.1-0.8,2.3-1.3,3.7-1.7c1.4-0.3,2.9-0.5,4.4-0.5 c1.4,0,2.8,0.2,4.1,0.5c1.3,0.3,2.4,0.8,3.3,1.5c0.9,0.7,1.7,1.6,2.2,2.7c0.5,1.1,0.8,2.5,0.8,4.2v15.5c0,1.3,0.2,2.1,0.7,2.5 c0.5,0.3,1.4,0.3,2.8-0.2v2.6c-0.3,0.1-0.6,0.2-1.1,0.3c-0.5,0.1-1,0.2-1.5,0.2c-0.5,0-1-0.1-1.5-0.2c-0.6-0.1-1-0.2-1.3-0.5 s-0.6-0.6-0.8-1c-0.2-0.4-0.3-0.8-0.4-1.3c-0.1-0.5-0.1-0.9-0.1-1.5c-1.4,1.5-3,2.7-4.8,3.5c-1.8,0.8-3.8,1.2-5.9,1.2 c-1.3,0-2.5-0.2-3.6-0.5c-1.2-0.3-2.2-0.8-3.1-1.5c-0.9-0.7-1.6-1.5-2.1-2.6c-0.5-1-0.8-2.2-0.8-3.6c0-4.8,3.3-7.7,10-8.6 L337.6,63.8z M343.2,65.4c-1.4,0.6-2.8,1-4.3,1.2s-2.9,0.3-4.3,0.4c-2.6,0.2-4.5,0.8-6,1.7c-1.4,1-2.1,2.4-2.1,4.3 c0,0.9,0.2,1.6,0.5,2.3c0.4,0.6,0.8,1.2,1.4,1.6c0.6,0.4,1.2,0.7,2,0.9c0.8,0.2,1.5,0.3,2.3,0.3c1.3,0,2.6-0.2,3.9-0.5 c1.3-0.3,2.4-0.8,3.4-1.5c1-0.7,1.8-1.5,2.4-2.6c0.6-1,0.9-2.3,0.9-3.7V65.4z" class="st2"/><path d="M361.8,80.4V40.8h3.3v39.6H361.8z" class="st2"/><path d="M391.5,62.6c1.4-0.2,2.5-0.4,3.1-0.7c1.1-0.5,1.7-1.2,1.7-2.2c0-1.2-0.4-2-1.3-2.5s-2.1-0.7-3.8-0.7 c-1.8,0-3.2,0.4-3.9,1.3c-0.5,0.7-0.9,1.6-1.1,2.7h-7.5c0.2-2.6,0.9-4.7,2.2-6.3c2.1-2.6,5.6-3.9,10.6-3.9c3.2,0,6.1,0.6,8.7,1.9 c2.5,1.3,3.8,3.7,3.8,7.2v13.4c0,0.9,0,2.1,0.1,3.4c0.1,1,0.2,1.7,0.5,2c0.3,0.4,0.6,0.7,1.1,0.9v1.1h-8.4 c-0.2-0.6-0.4-1.1-0.5-1.7c-0.1-0.5-0.2-1.1-0.2-1.8c-1.1,1.1-2.3,2.1-3.7,2.9c-1.7,0.9-3.6,1.4-5.7,1.4c-2.7,0-4.9-0.8-6.7-2.3 c-1.8-1.5-2.6-3.7-2.6-6.4c0-3.6,1.4-6.2,4.2-7.8c1.5-0.9,3.8-1.5,6.8-1.9L391.5,62.6z M396.2,66.1c-0.5,0.3-1,0.6-1.5,0.7 c-0.5,0.2-1.2,0.4-2.1,0.5l-1.8,0.3c-1.6,0.3-2.8,0.6-3.6,1c-1.2,0.7-1.8,1.8-1.8,3.3c0,1.3,0.4,2.3,1.1,2.8 c0.7,0.6,1.6,0.9,2.7,0.9c1.7,0,3.2-0.5,4.7-1.5s2.2-2.7,2.2-5.3V66.1z" class="st2"/><path d="M441.3,52.8c1.9,1.6,2.9,4.2,2.9,7.9v19.7h-7.9V62.6c0-1.5-0.2-2.7-0.6-3.5c-0.8-1.5-2.2-2.3-4.3-2.3 c-2.6,0-4.4,1.1-5.4,3.3c-0.5,1.2-0.8,2.7-0.8,4.5v15.9h-7.7V51.1h7.5v4.3c1-1.5,1.9-2.6,2.8-3.3c1.6-1.2,3.6-1.8,6-1.8 C436.8,50.4,439.3,51.2,441.3,52.8z" class="st2"/><path d="M469.9,62.6c1.4-0.2,2.5-0.4,3.1-0.7c1.1-0.5,1.7-1.2,1.7-2.2c0-1.2-0.4-2-1.3-2.5s-2.1-0.7-3.8-0.7 c-1.8,0-3.2,0.4-3.9,1.3c-0.5,0.7-0.9,1.6-1.1,2.7h-7.5c0.2-2.6,0.9-4.7,2.2-6.3c2.1-2.6,5.6-3.9,10.6-3.9c3.2,0,6.1,0.6,8.7,1.9 c2.5,1.3,3.8,3.7,3.8,7.2v13.4c0,0.9,0,2.1,0.1,3.4c0.1,1,0.2,1.7,0.5,2c0.3,0.4,0.6,0.7,1.1,0.9v1.1h-8.4 c-0.2-0.6-0.4-1.1-0.5-1.7c-0.1-0.5-0.2-1.1-0.2-1.8c-1.1,1.1-2.3,2.1-3.7,2.9c-1.7,0.9-3.6,1.4-5.7,1.4c-2.7,0-4.9-0.8-6.7-2.3 c-1.8-1.5-2.6-3.7-2.6-6.4c0-3.6,1.4-6.2,4.2-7.8c1.5-0.9,3.8-1.5,6.8-1.9L469.9,62.6z M474.6,66.1c-0.5,0.3-1,0.6-1.5,0.7 c-0.5,0.2-1.2,0.4-2.1,0.5l-1.8,0.3c-1.6,0.3-2.8,0.6-3.6,1c-1.2,0.7-1.8,1.8-1.8,3.3c0,1.3,0.4,2.3,1.1,2.8 c0.7,0.6,1.6,0.9,2.7,0.9c1.7,0,3.2-0.5,4.7-1.5s2.2-2.7,2.2-5.3V66.1z" class="st2"/><path d="M503.7,80.4H496V40.8h7.7V80.4z" class="st2"/><path d="M518.8,86l1,0.1c0.8,0,1.5,0,2.2-0.1c0.7-0.1,1.3-0.3,1.7-0.6c0.5-0.3,0.9-0.9,1.3-1.9s0.6-1.6,0.5-1.8 l-10.9-30.6h8.6l6.5,21.6l6.1-21.6h8.2l-10.1,28.8c-2,5.6-3.5,9-4.6,10.3s-3.4,2-6.8,2c-0.7,0-1.2,0-1.7,0s-1,0-1.9-0.1V86z" class="st2"/><path d="M554.1,57.3v-6.2h23.4v6.4l-14.5,16.6h15v6.3H553v-6l14.6-17.1H554.1z" class="st2"/><path d="M609.2,51.7c2.1,0.9,3.8,2.4,5.1,4.3c1.2,1.7,2,3.8,2.4,6.1c0.2,1.3,0.3,3.3,0.3,5.8h-21.5 c0.1,2.9,1.1,5,3.1,6.2c1.2,0.7,2.6,1.1,4.3,1.1c1.8,0,3.2-0.4,4.3-1.3c0.6-0.5,1.1-1.2,1.6-2h7.9c-0.2,1.7-1.2,3.5-2.9,5.3 c-2.6,2.8-6.4,4.3-11.1,4.3c-3.9,0-7.4-1.2-10.4-3.6c-3-2.4-4.5-6.3-4.5-11.7c0-5.1,1.4-9,4.1-11.7s6.2-4.1,10.6-4.1 C604.8,50.3,607.2,50.8,609.2,51.7z M597.7,58.3c-1.1,1.1-1.8,2.6-2.1,4.5h13.3c-0.1-2-0.8-3.6-2.1-4.6c-1.2-1.1-2.8-1.6-4.6-1.6 C600.3,56.6,598.8,57.2,597.7,58.3z" class="st2"/><path d="M644.8,50.4c0.1,0,0.3,0,0.7,0v7.8c-0.5-0.1-0.9-0.1-1.3-0.1c-0.4,0-0.7,0-0.9,0c-3.1,0-5.2,1-6.3,3 c-0.6,1.1-0.9,2.9-0.9,5.2v14h-7.8V51.1h7.4v5.1c1.2-2,2.2-3.3,3.1-4c1.4-1.2,3.3-1.8,5.6-1.8C644.6,50.4,644.7,50.4,644.8,50.4z" class="st2"/></g></svg>