<?xml version="1.0" encoding="utf-8"?>
<!-- Generator: Adobe Illustrator 22.0.1, SVG Export Plug-In . SVG Version: 6.00 Build 0)  -->
<svg version="1.1" id="Layer_1" xmlns="http://www.w3.org/2000/svg" xmlns:xlink="http://www.w3.org/1999/xlink" x="0px" y="0px"
	 viewBox="0 0 508 508" style="enable-background:new 0 0 508 508;" xml:space="preserve">
<style type="text/css">
	.st0{fill:#68B8E9;}
	.st1{fill:#F9B54C;}
	.st2{fill:#FF7058;}
	.st3{fill:#FFFFFF;}
	.st4{fill:#324A5E;}
	.st5{fill:#FFD05B;}
	.st6{fill:#2B3B4E;}
</style>
<circle class="st0" cx="254" cy="254" r="254"/>
<ellipse class="st1" cx="253.3" cy="257.7" rx="21.8" ry="37.3"/>
<path class="st2" d="M330.3,382.4c3.6-14.9,5.9-29.7,5.9-43.6c0-58.8-37-76.9-82.9-76.9c-45.6,0-82.9,17.8-82.9,76.9
	c0,13.9,2,28.7,5.9,43.6H330.3z"/>
<g>
	<path class="st3" d="M274.8,255.7c0,0-12.5,7.6-21.5,7.6l11.6,25.1l16.5-23.4L274.8,255.7z"/>
	<path class="st3" d="M231.9,255.7c0,0,12.5,7.6,21.5,7.6l-11.6,25.1l-16.5-23.4L231.9,255.7z"/>
</g>
<path class="st4" d="M313.8,150.7c0,35-27.1,83.9-60.4,83.9s-60.4-48.9-60.4-83.9s27.1-50.2,60.4-50.2S313.8,115.7,313.8,150.7z"/>
<path class="st5" d="M298.2,185.7c0,35.7-20.1,64.4-44.9,64.4s-44.9-28.7-44.9-64.4c0-21.1,7.3-39.9,18.2-51.8
	c7.9,7.9,17.5,15.5,28.4,22.1c14.5,8.9,29.1,15.2,42.3,18.8C297.9,178.4,298.2,182.1,298.2,185.7z"/>
<path class="st4" d="M333.9,420.1H172.8c-5.6,0-10.6-2.6-11.2-6.3l-20.1-99c-1-5.3,3.6-9.6,10.6-9.6h202.7c6.9,0,11.6,4.3,10.6,9.6
	l-20.1,99C344.5,417.1,339.5,420.1,333.9,420.1z"/>
<ellipse class="st6" cx="253.3" cy="358" rx="24.8" ry="10.6"/>
</svg>
