<?xml version="1.0" encoding="utf-8"?>
<!-- Generator: Adobe Illustrator 22.0.1, SVG Export Plug-In . SVG Version: 6.00 Build 0)  -->
<svg version="1.1" id="Layer_1" xmlns="http://www.w3.org/2000/svg" xmlns:xlink="http://www.w3.org/1999/xlink" x="0px" y="0px"
	 viewBox="0 0 508 508" style="enable-background:new 0 0 508 508;" xml:space="preserve">
<style type="text/css">
	.st0{fill:#68B8E9;}
	.st1{fill:#FFFFFF;}
	.st2{fill:#E6E9EE;}
	.st3{fill:#FF7058;}
	.st4{fill:#F1543F;}
	.st5{fill:#FFD05B;}
	.st6{fill:#324A5E;}
</style>
<circle class="st0" cx="254" cy="254" r="254"/>
<path class="st1" d="M374.4,88.8H131.2c-5.2,0-9.6,4.4-9.6,9.6v311.2c0,5.2,4.4,9.6,9.6,9.6h243.2c5.2,0,9.6-4.4,9.6-9.6V98.4
	C384,93.2,379.6,88.8,374.4,88.8z"/>
<g>
	<rect x="275.6" y="126" class="st2" width="64.8" height="12"/>
	<rect x="234.4" y="163.2" class="st2" width="106" height="12"/>
	<rect x="275.6" y="200.8" class="st2" width="64.8" height="12"/>
	<rect x="256" y="238" class="st2" width="84.4" height="12"/>
	<rect x="231.2" y="275.2" class="st2" width="109.2" height="12"/>
	<rect x="165.2" y="126" class="st2" width="104.4" height="12"/>
	<rect x="165.2" y="163.2" class="st2" width="63.2" height="12"/>
	<rect x="165.2" y="200.8" class="st2" width="104.4" height="12"/>
	<rect x="165.2" y="238" class="st2" width="84.4" height="12"/>
	<rect x="165.2" y="275.2" class="st2" width="60" height="12"/>
</g>
<rect x="260.2" y="246.6" transform="matrix(0.7071 -0.7071 0.7071 0.7071 -101.2072 320.474)" class="st3" width="152" height="71.6"/>
<rect x="372.1" y="200.3" transform="matrix(0.7071 -0.7071 0.7071 0.7071 -54.9115 339.6355)" class="st2" width="20.8" height="71.6"/>
<path class="st4" d="M415.2,254l21.6-21.6c3.2-3.2,3.2-8.4,0-12L398,181.6c-3.2-3.2-8.4-3.2-12,0l-21.6,21.6L415.2,254z"/>
<polygon class="st5" points="256.8,310.8 238.4,380 307.6,361.6 "/>
<polygon class="st6" points="244.4,357.6 238.4,380 260.8,374 "/>
</svg>
