<svg xmlns="http://www.w3.org/2000/svg" xmlns:xlink="http://www.w3.org/1999/xlink" id="Layer_1" x="0" y="0" version="1.1" viewBox="0 0 726.8 543.2" xml:space="preserve" style="enable-background:new 0 0 726.8 543.2"><style type="text/css">.st0{clip-path:url(#SVGID_2_)}.st1{fill:#001a45}.st2{fill:#fa9e27}.st3{fill:#cde7f7}.st4{fill:#122b42}.st5{fill:#1c4563}.st6{fill:#00102e}.st7{fill:#ffd59a}.st8{fill:#e6e6e6}.st9{fill:#030202}.st10{fill:#e3e3e3}.st11{fill:#ffc16b}.st12{fill:#c9c9c9}.st13{fill:#00245e}.st14{fill:#382100}.st15{fill:#261700}.st16{fill:#c60022}.st17{fill:#fff}.st18{fill:#324a5e}.st19{opacity:.3;fill:#404041}.st20{fill:#f1f2f2}.st21{opacity:.3;fill:#001a45}.st22{fill:#009cc6}.st23{opacity:.5;fill:#001a45}.st24{fill:#edfafd}</style><g><g><defs><rect id="SVGID_1_" width="726.8" height="543.3" x="0" y="0" transform="matrix(-1 -4.449742e-11 4.449742e-11 -1 726.8234 543.2546)"/></defs><clipPath id="SVGID_2_"><use xlink:href="#SVGID_1_" style="overflow:visible"/></clipPath><g class="st0"><path d="M743.6,556.2l1.7-2.4l4.6,3.2l-1.7,2.4L743.6,556.2z M734.5,549.9l1.7-2.4l4.6,3.2l-1.7,2.4L734.5,549.9z M725.3,543.5l1.7-2.4l4.6,3.2l-1.7,2.4L725.3,543.5z M716.1,537.1l1.7-2.4l4.6,3.2l-1.7,2.4L716.1,537.1z M706.9,530.7l1.7-2.4 l4.6,3.2l-1.7,2.4L706.9,530.7z M697.8,524.3l1.7-2.4l4.6,3.2l-1.7,2.4L697.8,524.3z M688.6,517.9l1.7-2.4l4.6,3.2l-1.7,2.4 L688.6,517.9z M679.4,511.5l1.7-2.4l4.6,3.2l-1.7,2.4L679.4,511.5z M670.2,505.1l1.7-2.4l4.6,3.2l-1.7,2.4L670.2,505.1z M661.1,498.7l1.7-2.4l4.6,3.2l-1.7,2.4L661.1,498.7z M651.9,492.4l1.7-2.4l4.6,3.2l-1.7,2.4L651.9,492.4z M642.7,486l1.7-2.4 l4.6,3.2l-1.7,2.4L642.7,486z M633.5,479.6l1.7-2.4l4.6,3.2l-1.7,2.4L633.5,479.6z M624.4,473.2l1.7-2.4l4.6,3.2l-1.7,2.4 L624.4,473.2z M615.2,466.8l1.7-2.4l4.6,3.2l-1.7,2.4L615.2,466.8z M606,460.4l1.7-2.4l4.6,3.2l-1.7,2.4L606,460.4z M596.8,454 l1.7-2.4l4.6,3.2l-1.7,2.4L596.8,454z M587.7,447.6l1.7-2.4l4.6,3.2l-1.7,2.4L587.7,447.6z M578.5,441.2l1.7-2.4l4.6,3.2 l-1.7,2.4L578.5,441.2z M569.3,434.9l1.7-2.4l4.6,3.2l-1.7,2.4L569.3,434.9z M560.2,428.5l1.7-2.4l4.6,3.2l-1.7,2.4L560.2,428.5z M551,422.1l1.7-2.4l4.6,3.2l-1.7,2.4L551,422.1z M541.8,415.7l1.7-2.4l4.6,3.2l-1.7,2.4L541.8,415.7z M532.6,409.3l1.7-2.4 l4.6,3.2l-1.7,2.4L532.6,409.3z M523.5,402.9l1.7-2.4l4.6,3.2l-1.7,2.4L523.5,402.9z M514.3,396.5l1.7-2.4l4.6,3.2l-1.7,2.4 L514.3,396.5z M505.1,390.1l1.7-2.4l4.6,3.2l-1.7,2.4L505.1,390.1z M495.9,383.7l1.7-2.4l4.6,3.2l-1.7,2.4L495.9,383.7z M486.8,377.4l1.7-2.4l4.6,3.2l-1.7,2.4L486.8,377.4z M477.6,371l1.7-2.4l4.6,3.2l-1.7,2.4L477.6,371z M468.4,364.6l1.7-2.4 l4.6,3.2l-1.7,2.4L468.4,364.6z M459.2,358.2l1.7-2.4l4.6,3.2l-1.7,2.4L459.2,358.2z M351,355.4l3.6-4.3l2.2,1.8l-3.6,4.3 L351,355.4z M342.2,352.5l1.6-2.4l4.7,3.1l-1.6,2.4L342.2,352.5z M450.1,351.8l1.7-2.4l4.6,3.2l-1.7,2.4L450.1,351.8z M332.9,346.3l1.6-2.4l4.7,3.1l-1.6,2.4L332.9,346.3z M358.2,346.8l3.6-4.3l2.2,1.8l-3.6,4.3L358.2,346.8z M440.9,345.4l1.7-2.4 l4.6,3.2l-1.7,2.4L440.9,345.4z M323.6,340.1l1.6-2.4l4.7,3.1l-1.6,2.4L323.6,340.1z M431.7,339l1.7-2.4l4.6,3.2l-1.7,2.4 L431.7,339z M365.3,338.2l3.6-4.3l2.2,1.8l-3.6,4.3L365.3,338.2z M314.3,333.9l1.6-2.4l4.7,3.1L319,337L314.3,333.9z M422.6,332.6l1.7-2.4l4.6,3.2l-1.7,2.4L422.6,332.6z M372.4,329.5l3.6-4.3l2.2,1.8l-3.6,4.3L372.4,329.5z M305,327.7l1.6-2.4 l4.7,3.1l-1.6,2.4L305,327.7z M413.4,326.2l1.7-2.4l4.6,3.2l-1.7,2.4L413.4,326.2z M295.7,321.5l1.6-2.4l4.7,3.1l-1.6,2.4 L295.7,321.5z M404.2,319.9l1.7-2.4l4.6,3.2l-1.7,2.4L404.2,319.9z M379.5,320.9l3.6-4.3l2.2,1.8l-3.6,4.3L379.5,320.9z M286.4,315.3l1.6-2.4l4.7,3.1l-1.6,2.4L286.4,315.3z M395,313.5l1.7-2.4l4.6,3.2l-1.7,2.4L395,313.5z M177.2,314.7l3.6-4.3 l2.2,1.8l-3.6,4.3L177.2,314.7z M168.3,311.1l1.6-2.4l4.7,3.1l-1.6,2.4L168.3,311.1z M386.6,312.3l4.3-5.2l1.2,0.8l-0.8,1.2 l1,0.8l-3.5,4.2L386.6,312.3z M277.1,309.2l1.6-2.4l4.7,3.1l-1.6,2.4L277.1,309.2z M159,304.9l1.6-2.4l4.7,3.1l-1.6,2.4 L159,304.9z M184.3,306.1l3.6-4.3l2.2,1.8l-3.6,4.3L184.3,306.1z M267.8,303l1.6-2.4l4.7,3.1l-1.6,2.4L267.8,303z M149.7,298.7 l1.6-2.4l4.7,3.1l-1.6,2.4L149.7,298.7z M258.4,296.8l1.6-2.4l4.7,3.1l-1.6,2.4L258.4,296.8z M191.4,297.4l3.6-4.3l2.2,1.8 l-3.6,4.3L191.4,297.4z M140.4,292.5l1.6-2.4l4.7,3.1l-1.6,2.4L140.4,292.5z M249.1,290.6l1.6-2.4l4.7,3.1l-1.6,2.4L249.1,290.6z M198.5,288.8l3.6-4.3l2.2,1.8l-3.6,4.3L198.5,288.8z M131.1,286.3l1.6-2.4l4.7,3.1l-1.6,2.4L131.1,286.3z M239.8,284.4l1.6-2.4 l4.7,3.1l-1.6,2.4L239.8,284.4z M121.8,280.1l1.6-2.4l4.7,3.1l-1.6,2.4L121.8,280.1z M205.7,280.2l3.6-4.3l2.2,1.8l-3.6,4.3 L205.7,280.2z M230.5,278.2l1.6-2.4l4.7,3.1l-1.6,2.4L230.5,278.2z M112.5,273.9l1.6-2.4l4.7,3.1l-1.6,2.4L112.5,273.9z M221.2,272l1.6-2.4l4.7,3.1l-1.6,2.4L221.2,272z M212.8,271.6l3.6-4.3l2.2,1.8l-3.6,4.3L212.8,271.6z M103.2,267.7l1.6-2.4 l4.7,3.1l-1.6,2.4L103.2,267.7z M93.9,261.5l1.6-2.4l4.7,3.1l-1.6,2.4L93.9,261.5z M84.6,255.3l1.6-2.4l4.7,3.1l-1.6,2.4 L84.6,255.3z M75.3,249.1l1.6-2.4l4.7,3.1l-1.6,2.4L75.3,249.1z M66,242.9l1.6-2.4l4.7,3.1l-1.6,2.4L66,242.9z M56.7,236.7 l1.6-2.4l4.7,3.1l-1.6,2.4L56.7,236.7z M47.4,230.5l1.6-2.4l4.7,3.1l-1.6,2.4L47.4,230.5z M38.1,224.3l1.6-2.4l4.7,3.1l-1.6,2.4 L38.1,224.3z M28.8,218.1l1.6-2.4l4.7,3.1l-1.6,2.4L28.8,218.1z M19.5,211.9l1.6-2.4l4.7,3.1l-1.6,2.4L19.5,211.9z" class="st1"/><g><rect width="2.9" height="2.5" x="821.8" y="286.8" class="st2" transform="matrix(0.5538 -0.8327 0.8327 0.5538 127.5079 814.035)"/><path d="M813.2,283.1l1.6-2.4l4.1,2.7l-1.6,2.4L813.2,283.1z M804.9,277.6l1.6-2.4l4.1,2.7l-1.6,2.4L804.9,277.6z M796.6,272.1l1.6-2.4l4.1,2.7l-1.6,2.4L796.6,272.1z M788.4,266.6l1.6-2.4l4.1,2.7l-1.6,2.4L788.4,266.6z M780.1,261.1l1.6-2.4 l4.1,2.7l-1.6,2.4L780.1,261.1z M771.8,255.6l1.6-2.4l4.1,2.7l-1.6,2.4L771.8,255.6z M763.6,250.1l1.6-2.4l4.1,2.7l-1.6,2.4 L763.6,250.1z M755.3,244.6l1.6-2.4l4.1,2.7l-1.6,2.4L755.3,244.6z M747,239.1l1.6-2.4l4.1,2.7l-1.6,2.4L747,239.1z M738.8,233.6l1.6-2.4l4.1,2.7l-1.6,2.4L738.8,233.6z M730.5,228.1l1.6-2.4l4.1,2.7l-1.6,2.4L730.5,228.1z M722.2,222.6l1.6-2.4 l4.1,2.7l-1.6,2.4L722.2,222.6z M714,217.1l1.6-2.4l4.1,2.7l-1.6,2.4L714,217.1z M705.7,211.6l1.6-2.4l4.1,2.7l-1.6,2.4 L705.7,211.6z M697.4,206.1l1.6-2.4l4.1,2.7l-1.6,2.4L697.4,206.1z M689.2,200.6l1.6-2.4l4.1,2.7l-1.6,2.4L689.2,200.6z M680.9,195.1l1.6-2.4l4.1,2.7l-1.6,2.4L680.9,195.1z M672.6,189.6l1.6-2.4l4.1,2.7l-1.6,2.4L672.6,189.6z M664.4,184.1l1.6-2.4 l4.1,2.7l-1.6,2.4L664.4,184.1z M656.1,178.6l1.6-2.4l4.1,2.7l-1.6,2.4L656.1,178.6z M647.8,173.1l1.6-2.4l4.1,2.7l-1.6,2.4 L647.8,173.1z M639.6,167.6l1.6-2.4l4.1,2.7l-1.6,2.4L639.6,167.6z" class="st2"/><polygon points="633.7 165.1 634.5 164.2 635.5 164.9 637.1 162.5 633.9 160.4 631.5 163.3" class="st2"/><path d="M598.4,203.5l3.3-4l2.2,1.8l-3.3,4L598.4,203.5z M605,195.4l3.3-4l2.2,1.8l-3.3,4L605,195.4z M611.7,187.4 l3.3-4l2.2,1.8l-3.3,4L611.7,187.4z M618.3,179.4l3.3-4l2.2,1.8l-3.3,4L618.3,179.4z M624.9,171.3l3.3-4l2.2,1.8l-3.3,4 L624.9,171.3z" class="st2"/><polygon points="594.9 212.2 597.4 209.3 595.1 207.5 594.4 208.4 593.4 207.7 591.8 210.1" class="st2"/><path d="M583.4,204.6l1.6-2.4l4.2,2.8l-1.6,2.4L583.4,204.6z M575,199l1.6-2.4l4.2,2.8l-1.6,2.4L575,199z M566.7,193.4l1.6-2.4l4.2,2.8l-1.6,2.4L566.7,193.4z M558.3,187.9l1.6-2.4l4.2,2.8l-1.6,2.4L558.3,187.9z M549.9,182.3l1.6-2.4 l4.2,2.8l-1.6,2.4L549.9,182.3z M541.5,176.7l1.6-2.4l4.2,2.8l-1.6,2.4L541.5,176.7z M533.1,171.1l1.6-2.4l4.2,2.8l-1.6,2.4 L533.1,171.1z M524.8,165.6l1.6-2.4l4.2,2.8l-1.6,2.4L524.8,165.6z M516.4,160l1.6-2.4l4.2,2.8l-1.6,2.4L516.4,160z M508,154.4 l1.6-2.4l4.2,2.8l-1.6,2.4L508,154.4z M499.6,148.8l1.6-2.4l4.2,2.8l-1.6,2.4L499.6,148.8z M491.3,143.3l1.6-2.4l4.2,2.8 l-1.6,2.4L491.3,143.3z M482.9,137.7l1.6-2.4l4.2,2.8l-1.6,2.4L482.9,137.7z M474.5,132.1l1.6-2.4l4.2,2.8l-1.6,2.4L474.5,132.1 z M466.1,126.6l1.6-2.4l4.2,2.8l-1.6,2.4L466.1,126.6z" class="st2"/><polygon points="460.2 124 461 123.1 461.9 123.8 463.5 121.4 460.4 119.3 458 122.2" class="st2"/><path d="M424.9,162.4l3.3-4l2.2,1.8l-3.3,4L424.9,162.4z M431.5,154.3l3.3-4l2.2,1.8l-3.3,4L431.5,154.3z M438.1,146.3l3.3-4l2.2,1.8l-3.3,4L438.1,146.3z M444.8,138.3l3.3-4l2.2,1.8l-3.3,4L444.8,138.3z M451.4,130.2l3.3-4l2.2,1.8 l-3.3,4L451.4,130.2z" class="st2"/><polygon points="421.4 171.1 423.8 168.2 421.6 166.4 420.9 167.3 419.9 166.6 418.3 169" class="st2"/><path d="M409.9,163.4l1.6-2.4l4.2,2.8l-1.6,2.4L409.9,163.4z M401.5,157.8l1.6-2.4l4.2,2.8l-1.6,2.4L401.5,157.8z M393.1,152.2l1.6-2.4l4.2,2.8l-1.6,2.4L393.1,152.2z M384.8,146.6l1.6-2.4l4.2,2.8l-1.6,2.4L384.8,146.6z M376.4,141l1.6-2.4 l4.2,2.8l-1.6,2.4L376.4,141z M368,135.4l1.6-2.4l4.2,2.8l-1.6,2.4L368,135.4z M359.6,129.8l1.6-2.4l4.2,2.8l-1.6,2.4 L359.6,129.8z M351.3,124.2l1.6-2.4l4.2,2.8l-1.6,2.4L351.3,124.2z M342.9,118.6l1.6-2.4l4.2,2.8l-1.6,2.4L342.9,118.6z M334.5,113l1.6-2.4l4.2,2.8l-1.6,2.4L334.5,113z M326.1,107.4l1.6-2.4l4.2,2.8l-1.6,2.4L326.1,107.4z M317.7,101.8l1.6-2.4 l4.2,2.8l-1.6,2.4L317.7,101.8z M309.4,96.2l1.6-2.4l4.2,2.8l-1.6,2.4L309.4,96.2z M301,90.6l1.6-2.4l4.2,2.8l-1.6,2.4L301,90.6 z M292.6,85l1.6-2.4l4.2,2.8l-1.6,2.4L292.6,85z M284.2,79.3l1.6-2.4l4.2,2.8l-1.6,2.4L284.2,79.3z M275.9,73.7l1.6-2.4l4.2,2.8 l-1.6,2.4L275.9,73.7z M267.5,68.1l1.6-2.4l4.2,2.8l-1.6,2.4L267.5,68.1z M259.1,62.5l1.6-2.4l4.2,2.8l-1.6,2.4L259.1,62.5z M250.7,56.9l1.6-2.4l4.2,2.8l-1.6,2.4L250.7,56.9z M242.4,51.3l1.6-2.4l4.2,2.8l-1.6,2.4L242.4,51.3z M234,45.7l1.6-2.4 l4.2,2.8l-1.6,2.4L234,45.7z M225.6,40.1l1.6-2.4l4.2,2.8l-1.6,2.4L225.6,40.1z M217.2,34.5l1.6-2.4l4.2,2.8l-1.6,2.4 L217.2,34.5z M208.8,28.9l1.6-2.4l4.2,2.8l-1.6,2.4L208.8,28.9z M200.5,23.3l1.6-2.4l4.2,2.8l-1.6,2.4L200.5,23.3z" class="st2"/><rect width="2.9" height="2.5" x="194.6" y="17.4" class="st2" transform="matrix(0.5561 -0.8311 0.8311 0.5561 71.5612 171.1953)"/></g><polygon points="196.6 18.5 203.5 7.9 190.9 7.3 178.3 6.7 184 17.9 189.8 29.1" class="st2"/><g><rect width="2.9" height="2.5" x="1200.4" y="656.4" class="st2" transform="matrix(0.5538 -0.8327 0.8327 0.5538 -11.3214 1294.1774)"/><path d="M1191.7,652.7l1.6-2.4l4.1,2.7l-1.6,2.4L1191.7,652.7z M1183.5,647.2l1.6-2.4l4.1,2.7l-1.6,2.4 L1183.5,647.2z M1175.2,641.7l1.6-2.4l4.1,2.7l-1.6,2.4L1175.2,641.7z M1167,636.2l1.6-2.4l4.1,2.7l-1.6,2.4L1167,636.2z M1158.7,630.7l1.6-2.4l4.1,2.7l-1.6,2.4L1158.7,630.7z M1150.4,625.2l1.6-2.4l4.1,2.7l-1.6,2.4L1150.4,625.2z M1142.2,619.7 l1.6-2.4l4.1,2.7l-1.6,2.4L1142.2,619.7z M1133.9,614.2l1.6-2.4l4.1,2.7l-1.6,2.4L1133.9,614.2z M1125.6,608.7l1.6-2.4l4.1,2.7 l-1.6,2.4L1125.6,608.7z M1117.4,603.2l1.6-2.4l4.1,2.7l-1.6,2.4L1117.4,603.2z M1109.1,597.7l1.6-2.4l4.1,2.7l-1.6,2.4 L1109.1,597.7z M1100.8,592.2l1.6-2.4l4.1,2.7l-1.6,2.4L1100.8,592.2z M1092.6,586.7l1.6-2.4l4.1,2.7l-1.6,2.4L1092.6,586.7z M1084.3,581.2l1.6-2.4l4.1,2.7l-1.6,2.4L1084.3,581.2z M1076,575.7l1.6-2.4l4.1,2.7l-1.6,2.4L1076,575.7z M1067.8,570.2 l1.6-2.4l4.1,2.7l-1.6,2.4L1067.8,570.2z M1059.5,564.7l1.6-2.4l4.1,2.7l-1.6,2.4L1059.5,564.7z M1051.2,559.2l1.6-2.4l4.1,2.7 l-1.6,2.4L1051.2,559.2z M1043,553.7l1.6-2.4l4.1,2.7l-1.6,2.4L1043,553.7z M1034.7,548.2l1.6-2.4l4.1,2.7l-1.6,2.4 L1034.7,548.2z M1026.4,542.7l1.6-2.4l4.1,2.7l-1.6,2.4L1026.4,542.7z M1018.2,537.2l1.6-2.4l4.1,2.7l-1.6,2.4L1018.2,537.2z" class="st2"/><polygon points="1012.3 534.7 1013 533.8 1014 534.5 1015.6 532.1 1012.5 530 1010.1 532.9" class="st2"/><path d="M977,573.1l3.3-4l2.2,1.8l-3.3,4L977,573.1z M983.6,565l3.3-4l2.2,1.8l-3.3,4L983.6,565z M990.2,557l3.3-4 l2.2,1.8l-3.3,4L990.2,557z M996.8,549l3.3-4l2.2,1.8l-3.3,4L996.8,549z M1003.5,540.9l3.3-4l2.2,1.8l-3.3,4L1003.5,540.9z" class="st2"/><polygon points="973.5 581.8 975.9 578.9 973.7 577.1 972.9 578 972 577.3 970.4 579.7" class="st2"/><path d="M962,574.2l1.6-2.4l4.2,2.8l-1.6,2.4L962,574.2z M953.6,568.6l1.6-2.4l4.2,2.8l-1.6,2.4L953.6,568.6z M945.2,563l1.6-2.4l4.2,2.8l-1.6,2.4L945.2,563z M936.9,557.5l1.6-2.4l4.2,2.8l-1.6,2.4L936.9,557.5z M928.5,551.9l1.6-2.4 l4.2,2.8l-1.6,2.4L928.5,551.9z M920.1,546.3l1.6-2.4l4.2,2.8l-1.6,2.4L920.1,546.3z M911.7,540.7l1.6-2.4l4.2,2.8l-1.6,2.4 L911.7,540.7z M903.3,535.2l1.6-2.4l4.2,2.8l-1.6,2.4L903.3,535.2z M895,529.6l1.6-2.4l4.2,2.8l-1.6,2.4L895,529.6z M886.6,524 l1.6-2.4l4.2,2.8l-1.6,2.4L886.6,524z M878.2,518.5l1.6-2.4l4.2,2.8l-1.6,2.4L878.2,518.5z M869.8,512.9l1.6-2.4l4.2,2.8 l-1.6,2.4L869.8,512.9z M861.5,507.3l1.6-2.4l4.2,2.8l-1.6,2.4L861.5,507.3z M853.1,501.7l1.6-2.4l4.2,2.8l-1.6,2.4L853.1,501.7 z M844.7,496.2l1.6-2.4l4.2,2.8l-1.6,2.4L844.7,496.2z" class="st2"/><polygon points="838.8 493.6 839.5 492.7 840.5 493.4 842.1 491 839 488.9 836.6 491.8" class="st2"/><path d="M803.5,532l3.3-4l2.2,1.8l-3.3,4L803.5,532z M810.1,523.9l3.3-4l2.2,1.8l-3.3,4L810.1,523.9z M816.7,515.9 l3.3-4l2.2,1.8l-3.3,4L816.7,515.9z M823.3,507.9l3.3-4l2.2,1.8l-3.3,4L823.3,507.9z M829.9,499.8l3.3-4l2.2,1.8l-3.3,4 L829.9,499.8z" class="st2"/><polygon points="800 540.7 802.4 537.8 800.2 536 799.4 536.9 798.5 536.2 796.9 538.6" class="st2"/><path d="M788.5,533l1.6-2.4l4.2,2.8l-1.6,2.4L788.5,533z M780.1,527.4l1.6-2.4l4.2,2.8l-1.6,2.4L780.1,527.4z M771.7,521.8l1.6-2.4l4.2,2.8l-1.6,2.4L771.7,521.8z M763.3,516.2l1.6-2.4l4.2,2.8l-1.6,2.4L763.3,516.2z M755,510.6l1.6-2.4 l4.2,2.8l-1.6,2.4L755,510.6z M746.6,505l1.6-2.4l4.2,2.8l-1.6,2.4L746.6,505z M738.2,499.4l1.6-2.4l4.2,2.8l-1.6,2.4 L738.2,499.4z M729.8,493.8l1.6-2.4l4.2,2.8l-1.6,2.4L729.8,493.8z M721.5,488.2l1.6-2.4l4.2,2.8l-1.6,2.4L721.5,488.2z M713.1,482.6l1.6-2.4l4.2,2.8l-1.6,2.4L713.1,482.6z M704.7,477l1.6-2.4l4.2,2.8l-1.6,2.4L704.7,477z M696.3,471.4l1.6-2.4 l4.2,2.8l-1.6,2.4L696.3,471.4z M687.9,465.8l1.6-2.4l4.2,2.8l-1.6,2.4L687.9,465.8z M679.6,460.2l1.6-2.4l4.2,2.8l-1.6,2.4 L679.6,460.2z M671.2,454.6l1.6-2.4l4.2,2.8l-1.6,2.4L671.2,454.6z M662.8,449l1.6-2.4l4.2,2.8l-1.6,2.4L662.8,449z M654.4,443.3l1.6-2.4l4.2,2.8l-1.6,2.4L654.4,443.3z M646.1,437.7l1.6-2.4l4.2,2.8l-1.6,2.4L646.1,437.7z M637.7,432.1l1.6-2.4 l4.2,2.8l-1.6,2.4L637.7,432.1z M629.3,426.5l1.6-2.4l4.2,2.8l-1.6,2.4L629.3,426.5z M620.9,420.9l1.6-2.4l4.2,2.8l-1.6,2.4 L620.9,420.9z M612.5,415.3l1.6-2.4l4.2,2.8l-1.6,2.4L612.5,415.3z M604.2,409.7l1.6-2.4l4.2,2.8l-1.6,2.4L604.2,409.7z M595.8,404.1l1.6-2.4l4.2,2.8l-1.6,2.4L595.8,404.1z M587.4,398.5l1.6-2.4l4.2,2.8l-1.6,2.4L587.4,398.5z M579,392.9l1.6-2.4 l4.2,2.8l-1.6,2.4L579,392.9z" class="st2"/><rect width="2.9" height="2.5" x="573.2" y="387" class="st2" transform="matrix(0.5562 -0.831 0.831 0.5562 -67.6005 649.8279)"/></g><polygon points="575.2 388.1 582.1 377.6 569.5 376.9 556.9 376.3 562.6 387.5 568.4 398.7" class="st2"/><polygon points="70 101.4 76.8 90.8 64.2 90.2 51.6 89.6 57.4 100.8 63.2 112" class="st1"/><polygon points="18.4 210.5 25.2 199.9 12.6 199.2 0 198.6 5.8 209.8 11.5 221" class="st1"/><polygon points="763.1 417.8 764.7 415.4 468.3 216.6 428.8 264.6 294.8 175.5 255.2 223.5 70 99.9 68.4 102.3 255.8 227.4 295.3 179.4 429.3 268.5 468.9 220.5" class="st1"/></g></g><g><g><path d="M242.2,108.7c0,0,53.2-45.7,152.5-22.1c0,0,88.8,21,96.7,126.2c0,0,1.7,34.8-35.3,94.1 c0,0-13.5,40.1-10.1,108.2l-113-47.5l-90.7-161.8V108.7z" class="st3"/><g><path d="M372.3,334.8V347c0,1.7,1.4,3.1,3,3.1h7c0.4,2.6,1.1,5.1,1.9,7.5l-6.3,3.6c-1.4,0.8-1.9,2.7-1.1,4.1 l6.1,10.5c0.9,1.5,2.7,2,4.2,1.1l6.1-3.5c1.7,2,3.5,3.8,5.4,5.5l-3.6,6.3c-0.8,1.5-0.3,3.3,1.1,4.2l10.5,6.1 c1.5,0.8,3.3,0.4,4.1-1.1l3.5-6.1c2.4,0.9,4.9,1.6,7.4,2.1v7.3c0,1.7,1.4,3,3,3l12.2,0c1.7,0,3-1.4,3-3v-7 c2.6-0.4,5.1-1.1,7.5-1.9l3.6,6.3c0.8,1.5,2.7,1.9,4.1,1.1l10.6-6.1c1.5-0.8,1.9-2.7,1.1-4.2l-3.5-6.1c2-1.6,3.8-3.5,5.5-5.4 l6.3,3.6c1.5,0.8,3.3,0.3,4.2-1.1l6.1-10.5c0.8-1.5,0.3-3.3-1.1-4.2l-6.1-3.5c0.9-2.4,1.6-4.9,2.1-7.4h7.3c1.7,0,3.1-1.4,3.1-3 v-12.2c0-1.7-1.4-3.1-3.1-3.1h-7c-0.4-2.6-1.1-5.1-1.9-7.5l6.3-3.6c1.5-0.8,2-2.7,1.1-4.2l-6.1-10.5c-0.8-1.5-2.7-2-4.2-1.1 l-6.1,3.5c-1.6-2-3.4-3.8-5.4-5.5l3.6-6.3c0.8-1.5,0.3-3.3-1.1-4.2l-10.5-6.1c-1.5-0.8-3.3-0.3-4.2,1.1l-3.5,6.1 c-2.4-0.9-4.9-1.6-7.4-2.1v-7.3c0-1.7-1.4-3-3.1-3H426c-1.7,0-3,1.4-3,3v7c-2.6,0.4-5.1,1.1-7.5,1.9l-3.6-6.3 c-0.8-1.5-2.7-2-4.2-1.1l-10.5,6.1c-1.5,0.8-2,2.7-1.1,4.2l3.5,6.1c-2,1.6-3.8,3.4-5.5,5.4l-6.3-3.6c-1.4-0.8-3.3-0.3-4.2,1.1 l-6.1,10.5c-0.8,1.5-0.3,3.3,1.1,4.2l6.1,3.5c-0.9,2.4-1.6,4.9-2.1,7.4h-7.3C373.6,331.8,372.2,333.2,372.3,334.8z M407.1,341.6 c0-13.4,10.9-24.3,24.3-24.3c13.4,0,24.3,10.9,24.3,24.3c0,13.4-10.9,24.3-24.3,24.3C418,365.9,407.1,355,407.1,341.6z" class="st4"/><path d="M393,341.6c0,21.2,17.2,38.4,38.5,38.4c21.2,0,38.4-17.2,38.4-38.4c0-21.2-17.2-38.5-38.4-38.5 C410.2,303.2,393,320.4,393,341.6z M399.9,341.6c0-17.4,14.1-31.6,31.6-31.6c17.4,0,31.6,14.1,31.6,31.6 c0,17.4-14.1,31.6-31.6,31.6C414,373.2,399.9,359,399.9,341.6z" class="st5"/><path d="M431.4,303.2c0.4,0,0.7,0,1.1,0v6.9c-0.3,0-0.7,0-1.1,0c-17.4,0-31.6,14.1-31.6,31.6 c0,17.4,14.1,31.6,31.6,31.6c0.4,0,0.7,0,1.1,0v6.9c-0.3,0-0.7,0-1.1,0c-21.2,0-38.5-17.2-38.5-38.4 C393,320.4,410.2,303.2,431.4,303.2z" class="st5"/></g><g><g><path d="M293.6,254l0.6-18.2l44-19.4l7.2-27.3c-0.2-0.1,29.4-14.6,29.2-14.7c15.7,3.5,11.2-8.8,11.2-8.8 l-34.5,70.9L293.6,254z" class="st1"/><path d="M296.3,234.9l57.2-14.2l-4.4-7.8l9.5-9.2l6.3,5v15.8c0,0-5.6,8-8.4,8.8c-2.8,0.8-35,11.6-35.3,11.7 c-0.2,0.1-19.7,6.6-19.7,6.6L296.3,234.9z" class="st6"/><path d="M294.7,246.6c0.7,1.9,0.4,4.8,1.4,6.9c-2.6,1.4-9.3,2.8-14.3,4.6c-5.7,2.1-9.6-7.9-8.9-13.6 c0.7-5.8,3.8,0,4.5-5c0.6-4.2,11.1-2.7,14.3-1.9C292.2,240.6,293.5,243.7,294.7,246.6z" class="st7"/><polygon points="289.6 236 295.1 254.7 301.6 252.8 296 234.1" class="st8"/></g><g><path d="M326.3,382.7c-0.4,1.1-0.8,1.8-1.2,1.8c-4,0.3-3.2,7.9-4.6,8.6c-6.6,3.7-31.9,15.5-34.1,9.4 c-2.2-6,21.3-19.7,21.3-19.7l0-0.4C314,383.2,320.5,382.8,326.3,382.7z" class="st9"/><path d="M409.5,277l-0.2-0.7c-20.3-22-8.3-15.3-18.1-19.1c0.4,0.6-121.5,5.3-121.5,5.3L306.6,380 c3.9,7.4,18.8,8.4,20.6,4.8c1.5-10.8-20.5-90-20.5-90l59.8,6L409.5,277z" class="st1"/><path d="M409.5,277l-0.2-0.7c-20.3-22-18.4-14.7-28.3-18.5c0,0-17.6,0.9-17.6,0.9l-77.1,12.4 c0,0,31.3,93.9,29.8,104.7c-1,1.9-5.6,2.5-10.3,1.5l0.8,2.6c3.9,7.4,18.8,8.4,20.6,4.8c1.5-10.8-20.5-90-20.5-90l59.8,6 L409.5,277z" class="st6"/></g><path d="M378.6,166.6l21.6-5.4c-4.4,19.3,3.2,42.5,7.5,62.1c2.5,11,5.7,21.5,9.1,32.3c2.5,8.7-2.2,11.9-2.2,11.9 l-21.1,16.6c-2.6-0.8-2.7-12.4-15.9-23.9c0,0,1.8-6.7-13.9-28.8c-1.9-2.7-0.5-4.4-2.3-7.2C354.3,177.6,357.7,182.2,378.6,166.6z" class="st10"/><path d="M375.2,147.7l9.4-2c0,0,11,10.6,13.3,12.7c2.3,2.1-27.8,21.5-27.8,21.5s-0.8-1.8-6.7-4.2 c0,0,1.1-6.6,0.5-7.3C360.3,164.4,375.2,147.7,375.2,147.7z" class="st11"/><g><path d="M348.2,396.6c-0.4,1.1-0.8,1.8-1.2,1.8c-4,0.3-3.2,7.9-4.6,8.6c-6.6,3.7-31.9,15.5-34.1,9.4 c-2.2-6,21.3-19.7,21.3-19.7l0-0.4C335.9,397.1,342.4,396.7,348.2,396.6z" class="st9"/><path d="M388.3,314.7l-59.8-6c0,0,22,79.2,20.5,90c-1.8,3.6-16.7,2.5-20.6-4.8l-36.9-117.5 c0,0,121.9-4.6,121.5-5.3c9.8,3.8-2.2-2.9,18.1,19.1l0.2,0.7" class="st1"/><path d="M319.8,294.9c1.7,4.8,21.6,12.8,26.3,14.2c1.7,0.7,3.9,0.1,5.9,0.2c9.8,0.2,18.4,1.7,27.7,2 c5.4,0.4,40.9-8,34.8-37.7c-1-5.1,9.9,17,16.6,16.6c-1.5,2.6,1.9,20.1-18.2,25.8l-24.6-1.2l-60.4-5.8l6.3,20.6 C334.2,329.5,323.4,305,319.8,294.9z" class="st6"/></g><path d="M398.2,163.3L380.7,191l-3.3-7.1c0,0,5,48.5,4.7,48.3c-0.3-0.2-9.2-44.4-9.2-44.4l-1.5-2.2l-3.9,3.2l-6-11 l1.9-3.3l9.4,5.5c0,0,7.5,0,7.8-0.1C380.9,179.8,398.2,163.3,398.2,163.3z" class="st12"/><path d="M386.3,216.9c-6.7-20.4-1.4-38.1,15.8-61l27,9.8c0,0,3.3,69.8,8.3,80.6c7.7,16.6,13.9,17.6,13.9,17.6 c2.7,14.2-8.9,37.7-18.3,39.8C429.6,298.3,399.7,258,386.3,216.9z" class="st1"/><path d="M402.1,155.8l3.3,2.6c-8.6,17.2,0.8,24.7,0.8,24.7l-12.2,9.2l11,3.2c0,0-11.9,26.5-5.4,52.7 c0,0-10-21.4-13.3-31.5C379.6,196.3,384.9,178.6,402.1,155.8z" class="st13"/><path d="M386.3,216.9c4.9,15.1,12,30,19.3,43.2l0,0l23.5-94.4c0,0-27,24.4-45.3,39.6 C384.2,209.1,385,213,386.3,216.9z" class="st6"/><path d="M362.4,174.4l3.7,3.5c-1.2,28.2,7.5,67.4,21.2,94c-26.9-23.2-41.9-82.6-41.9-82.6L362.4,174.4z" class="st1"/><path d="M360.5,227.5c-1.9-2.7-3.8-12.2-3.8-12.2s0.7-2.6,2.4-7.1c-4.4-0.5-3.4-3.1-7.7-4.4 c2.6-0.7,4.5-7.6,5.8-9.8c4.7,0.3,3.6,4.6,8.5,4.9c0.2,20.2-1.3,32.1,13,53.6C373.8,248.8,366.5,235.4,360.5,227.5z" class="st6"/><path d="M375,247.7c-9.2-12.7-11.9-22.4-23-33.3c4.1-1.1,6.8-6.5,8.4-10.4c-4.8-0.2-5.2-1.5-9.8-2.9 c7.6-5.8,12-17.6,11-26.4l4.4,3.3c-1.1,26,4.7,49.9,13,75.7C378.3,251.2,376.2,249.6,375,247.7z" class="st13"/><g><path d="M368.9,118.2c0,0-9.1-5.8-18-0.1c-8.9,5.7-10,9-7,15.9c3,6.9,6.5,11.2,2.8,13.4c-3.8,2.2-6.8,1.9-6.8,1.9 s1.5,6.1,6.8,7.3c3.2,0.7,7.1,0,7.1,0s1.3,7.4-0.6,11.7c-1.4,3.4,7.2,7.4,20.2-1.4c9.6-6.5,10.6-13.4,9.9-15.4 c-1.1-2.9-1.6-3.4-2.7-5.4C379.4,144,368.9,118.2,368.9,118.2z" class="st7"/><path d="M369,121.8c0,0-0.3,15.8,4.2,18.8c4.4,3.1,11.1,7.8,11.1,7.8s3.2,2.7,4.4-13.1 c1.3-16.2,2.5-15.5-0.6-18.2c-3.1-2.7-5.7-3-5.7-3s1.2-6.6-2.6-9c-3.8-2.4-18-2.2-29.5,2.3c-11.5,4.6-20,12.2-17.2,18.2 C335.3,130.6,350.5,135.7,369,121.8z" class="st14"/><path d="M333.6,119.4c2.3,5.6,15.5-8.3,29.2-10.9c5.8-1.1,11.4-0.3,14.8,2.9c3.5,3.2-3,6.6-3,6.6s4.8-2.1,6.8-2.3 c2-0.2,4.7,7.6,5.4,11.2c0.6,3.2,2.9,14.5-3.6,20.8c-2-1.4-6.7-4.7-10.2-7.1c-4.4-3.1-4.2-18.8-4.2-18.8 c-18.5,14-33.6,8.9-35.9,3.9C332.1,123.7,332.4,121.6,333.6,119.4z" class="st15"/><path d="M371.5,139.5c1.1,4.3,5.6,6.9,9.9,5.8c4.3-1.1,6.9-5.6,5.8-9.9c-1.1-4.3-5.6-6.9-9.9-5.8 C373,130.7,370.4,135.2,371.5,139.5z" class="st7"/><path d="M379.6,144c0,0,2.6-1.6,0.2-3.8c-1.2-1.1-3.3,0-3.3,0s0.5-4,3.1-3.7c2.5,0.3,3,2.6,3,2.6s0.1-4-3.7-3.7 c-3.8,0.3-2.8,5.5-2.8,5.5s3.4-1.6,3.8,1.3C380.1,143.3,379.6,144,379.6,144z" class="st11"/><path d="M354,156.4c0,0,2.8-1.7,1.3-3.5c-0.9-1.1-1.9-1.8-1.9-1.8S359.8,153.9,354,156.4z" class="st11"/></g><path d="M378.2,180.3l-6.6,4.6c0,0,22,70-1.2,88.1c-6.3,2-9.5,1.4-9.5,1.4l-1.1-8.2c0,0,14.6-8.5,15.7-26.2 c1.6-24.7-6.4-55.2-6.4-55.2l-5.4-3.9l6.7-2.9L378.2,180.3z" class="st16"/><g><polygon points="396.4 156.3 369.2 177.9 363.5 173.2 361.2 176.3 367.1 187.4 369.4 178.6 381.2 184.4 399.8 159.7" class="st10"/><g><path d="M369.2,177.9l19.1-11.8c-0.1,4.6-0.9,5.2-0.7,9.7l-6.4,8.6l-11.8-5.8l-2.3,8.8l-4.9-9 c-0.2-0.6,1.2-3.8,1.2-3.8L369.2,177.9z" class="st17"/></g></g></g><path d="M445.5,415.3L244.9,106.5c-7.4,4.7-21.1,16.6-28.1,24c-22.3,24-41.7,51.6-39.6,100.8 c0.5,10.6,15,23.7,3.3,43.7c0,0-24.9,39.1-24.5,45.9c0,0-1,12.3,17.9,13.6c0,0,5.2,1.7,3.3,12l-2.6,12.4c0,0-0.5,6.9,9.7,9.7 c0,0,1.5,1.6-1,4.6c0,0-5.2,4.6,2.3,15.5c2.7,3.9,6.9,9,3.6,18.8c0,0-4.5,18.9,2.7,23.9c0,0,8,10.6,42.6,8.1 c11.5-0.8,32.8-5.2,45.3,9.8c0.4,0.8,6.7,12.6,2.7,23.5c-1.7,4.8-2.3,9.8,3.6,11.3c5.4,1.4,10.8-0.4,16.1-1.5 c9.9-2,19.6-4.7,29.2-7.9C416.1,443,445.5,415.3,445.5,415.3z" class="st18"/><path d="M244.9,106.5c0,0-82.8,75.4-19.1,178.8c0,0,27,42.9,86.4,63.3c59.1,20.3,129.7,59.7,133.3,66.7L244.9,106.5 z" class="st19"/><path d="M245,106.3c0,0-69.3,61.5-9.1,172.2c0,0,24.1,45,83.6,65.4c59.1,20.3,122.6,64.2,126.1,71.2L245,106.3z" class="st20"/></g><g><path d="M182.3,100.7v13.4c0,1.9,1.5,3.4,3.3,3.4h7.7c0.5,2.8,1.2,5.5,2.1,8.2l-6.9,4c-1.6,0.9-2.1,3-1.2,4.6 l6.7,11.6c0.9,1.6,3,2.1,4.6,1.2l6.7-3.9c1.8,2.2,3.8,4.2,5.9,6.1l-4,6.9c-0.9,1.6-0.4,3.7,1.2,4.6l11.6,6.7 c1.6,0.9,3.6,0.4,4.6-1.2l3.9-6.6c2.6,1,5.4,1.7,8.1,2.3v8c0,1.8,1.5,3.3,3.3,3.3l13.4,0c1.8,0,3.3-1.5,3.3-3.3V162 c2.8-0.5,5.6-1.2,8.2-2.1l4,6.9c0.9,1.6,3,2.1,4.5,1.2l11.6-6.7c1.6-0.9,2.1-3,1.2-4.6l-3.8-6.7c2.2-1.8,4.2-3.8,6.1-5.9l6.9,4 c1.6,0.9,3.6,0.4,4.6-1.2l6.7-11.6c0.9-1.6,0.4-3.6-1.2-4.6l-6.7-3.8c1-2.6,1.7-5.4,2.3-8.2h8c1.9,0,3.3-1.5,3.3-3.3v-13.3 c0-1.8-1.5-3.3-3.3-3.3h-7.7c-0.5-2.8-1.2-5.5-2.1-8.2l6.9-4c1.6-0.9,2.1-3,1.2-4.6l-6.7-11.6c-0.9-1.6-3-2.1-4.6-1.2l-6.7,3.8 c-1.8-2.2-3.8-4.2-5.9-6.1l4-6.9c0.9-1.6,0.4-3.6-1.2-4.6l-11.6-6.7c-1.6-0.9-3.7-0.4-4.6,1.2l-3.8,6.7c-2.6-1-5.4-1.7-8.2-2.3 v-8c0-1.8-1.5-3.3-3.4-3.3h-13.3c-1.9,0-3.3,1.5-3.3,3.3v7.7c-2.8,0.5-5.6,1.2-8.2,2.1l-4-6.9c-0.9-1.6-3-2.1-4.6-1.2l-11.6,6.7 c-1.6,0.9-2.1,3-1.2,4.6l3.9,6.7c-2.2,1.8-4.2,3.8-6.1,5.9l-6.9-4c-1.6-0.9-3.6-0.4-4.6,1.2L188,80.8c-0.9,1.6-0.4,3.6,1.2,4.6 l6.7,3.8c-1,2.6-1.7,5.4-2.3,8.2h-8C183.8,97.4,182.3,98.9,182.3,100.7z M220.6,108.1c0-14.7,11.9-26.6,26.6-26.6 c14.7,0,26.6,11.9,26.6,26.6c0,14.7-11.9,26.6-26.6,26.6C232.5,134.8,220.6,122.8,220.6,108.1z" class="st4"/><path d="M205,108.1c0,23.3,18.9,42.2,42.2,42.2c23.3,0,42.2-18.9,42.2-42.2c0-23.3-18.9-42.2-42.2-42.2 C223.9,66,205,84.8,205,108.1z M212.6,108.1c0-19.1,15.5-34.6,34.6-34.6c19.1,0,34.6,15.5,34.6,34.6c0,19.1-15.5,34.6-34.6,34.6 C228.1,142.8,212.6,127.2,212.6,108.1z" class="st5"/><path d="M247.2,66c0.4,0,0.8,0,1.2,0v7.5c-0.4,0-0.8,0-1.2,0c-19.1,0-34.6,15.5-34.6,34.6 c0,19.1,15.5,34.6,34.6,34.6c0.4,0,0.8,0,1.2,0v7.5c-0.4,0-0.8,0-1.2,0c-23.3,0-42.2-18.9-42.2-42.2C205,84.8,223.9,66,247.2,66z" class="st5"/></g><g><path d="M310.3,47.3v8.3c0,1.2,0.9,2.1,2.1,2.1h4.8c0.3,1.7,0.7,3.4,1.3,5.1l-4.3,2.5c-1,0.6-1.3,1.8-0.8,2.8 l4.1,7.2c0.6,1,1.8,1.3,2.8,0.8l4.1-2.4c1.1,1.4,2.4,2.6,3.7,3.8l-2.5,4.3c-0.6,1-0.2,2.3,0.8,2.8l7.2,4.2c1,0.6,2.3,0.2,2.8-0.8 l2.4-4.1c1.6,0.6,3.3,1.1,5.1,1.4v5c0,1.1,0.9,2.1,2.1,2.1l8.3,0c1.1,0,2.1-0.9,2.1-2.1v-4.8c1.8-0.3,3.5-0.7,5.1-1.3l2.5,4.3 c0.6,1,1.8,1.3,2.8,0.8L374,85c1-0.6,1.3-1.8,0.8-2.8l-2.4-4.1c1.3-1.1,2.6-2.4,3.8-3.7l4.3,2.5c1,0.6,2.3,0.2,2.8-0.8l4.1-7.2 c0.6-1,0.2-2.3-0.8-2.8l-4.1-2.4c0.6-1.6,1.1-3.3,1.4-5.1h5c1.2,0,2.1-0.9,2.1-2.1v-8.3c0-1.1-0.9-2.1-2.1-2.1h-4.8 c-0.3-1.7-0.7-3.4-1.3-5.1l4.3-2.5c1-0.6,1.3-1.8,0.8-2.8l-4.2-7.2c-0.6-1-1.8-1.3-2.8-0.8l-4.1,2.4c-1.1-1.3-2.4-2.6-3.7-3.8 l2.5-4.3c0.6-1,0.2-2.3-0.8-2.8l-7.2-4.2c-1-0.6-2.3-0.2-2.9,0.8l-2.4,4.1c-1.6-0.6-3.3-1.1-5.1-1.4v-5c0-1.1-0.9-2.1-2.1-2.1 H347c-1.2,0-2.1,0.9-2.1,2.1v4.8c-1.7,0.3-3.5,0.7-5.1,1.3l-2.5-4.3c-0.6-1-1.8-1.3-2.8-0.8l-7.2,4.2c-1,0.6-1.3,1.8-0.8,2.8 l2.4,4.1c-1.4,1.1-2.6,2.4-3.8,3.7l-4.3-2.5c-1-0.6-2.3-0.2-2.8,0.8l-4.2,7.2c-0.6,1-0.2,2.3,0.8,2.8l4.1,2.4 c-0.6,1.6-1.1,3.3-1.4,5.1h-5C311.2,45.2,310.3,46.1,310.3,47.3z M334.1,51.9c0-9.1,7.4-16.6,16.6-16.6c9.1,0,16.6,7.4,16.6,16.6 c0,9.1-7.4,16.6-16.6,16.6C341.5,68.5,334.1,61,334.1,51.9z" class="st4"/><path d="M324.4,51.9c0,14.5,11.7,26.2,26.2,26.2c14.5,0,26.2-11.7,26.2-26.2c0-14.5-11.7-26.2-26.2-26.2 C336.2,25.7,324.4,37.4,324.4,51.9z M329.1,51.9c0-11.9,9.6-21.5,21.5-21.5c11.9,0,21.5,9.6,21.5,21.5c0,11.9-9.6,21.5-21.5,21.5 C338.8,73.4,329.1,63.8,329.1,51.9z" class="st5"/><path d="M350.7,25.7c0.2,0,0.5,0,0.7,0v4.7c-0.2,0-0.5,0-0.7,0c-11.9,0-21.5,9.6-21.5,21.5 c0,11.9,9.6,21.5,21.5,21.5c0.2,0,0.5,0,0.7,0v4.7c-0.2,0-0.5,0-0.7,0c-14.5,0-26.2-11.7-26.2-26.2 C324.4,37.4,336.2,25.7,350.7,25.7z" class="st5"/></g><g><path d="M325.3,254l0.6-18.2l53.3-23.8l22.9-56.1c-0.2-0.1,8.5,4.7,8.3,4.6c15.7,3.5,18.7,5.2,18.7,5.2l-34.5,70.9 L325.3,254z" class="st1"/><path d="M326.4,246.6c0.7,1.9,0.4,4.8,1.4,6.9c-2.6,1.4-9.3,2.8-14.3,4.6c-5.7,2.1-9.6-7.9-8.9-13.6 c0.7-5.8,3.8,0,4.5-5c0.6-4.2,11.1-2.7,14.3-1.9C323.9,240.6,325.1,243.7,326.4,246.6z" class="st7"/><polygon points="321.2 236 326.8 254.7 333.2 252.8 327.7 234.1" class="st8"/></g><polygon points="578.8 248.6 610.7 216.7 642.6 248.6 627.1 248.6 627.1 290.4 594.3 290.4 594.3 248.6" class="st21"/><polygon points="491.2 316.3 528 279.5 564.8 316.3 546.8 316.3 546.8 364.5 509.1 364.5 509.1 316.3" class="st22"/><polygon points="507.4 206.7 528 186.1 548.5 206.7 538.5 206.7 538.5 233.7 517.4 233.7 517.4 206.7" class="st23"/><polygon points="113.7 153.6 85.6 125.6 57.6 153.6 71.3 153.6 71.3 190.3 100 190.3 100 153.6" class="st21"/><polygon points="173.2 209.2 140.9 176.9 108.5 209.2 124.3 209.2 124.3 251.6 157.4 251.6 157.4 209.2" class="st22"/><polygon points="158.9 98.7 140.9 80.6 122.8 98.7 131.6 98.7 131.6 122.4 150.1 122.4 150.1 98.7" class="st2"/></g><g><path d="M628,71c-20.8,0-41.6,0-62.4,0c-20.9,0-41.9,0-62.8,0c-0.1,0-0.2,0-0.3,0c-8.6,0-15.8-5.2-15.8-11.4 c0-6.2,7.2-11.4,15.8-11.4c20.9,0,41.9,0,62.8,0c20.8,0,41.6,0,62.4,0c0.1,0,0.2,0,0.3,0c8.6,0,15.8,5.2,15.8,11.4 C643.8,65.8,636.6,71,628,71L628,71z" class="st24"/></g><g><path d="M480.2,23c-13.6,0-27.2,0-40.9,0c-6.2,0-11.4-5.2-11.4-11.4c0-6.2,5.2-11.4,11.4-11.4c13.6,0,27.2,0,40.9,0 c6.2,0,11.4,5.2,11.4,11.4C491.6,17.8,486.4,23,480.2,23L480.2,23z" class="st24"/></g><g><path d="M119.5,54.6c-13.6,0-27.2,0-40.9,0c-6.2,0-11.4-5.2-11.4-11.4c0-6.2,5.2-11.4,11.4-11.4 c13.6,0,27.2,0,40.9,0c6.2,0,11.4,5.2,11.4,11.4C130.9,49.4,125.7,54.6,119.5,54.6L119.5,54.6z" class="st24"/></g><g><path d="M71,391.5c-13.6,0-27.2,0-40.9,0c-6.2,0-11.4-5.2-11.4-11.4c0-6.2,5.2-11.4,11.4-11.4c13.6,0,27.2,0,40.9,0 c6.2,0,11.4,5.2,11.4,11.4C82.5,386.3,77.3,391.5,71,391.5L71,391.5z" class="st24"/></g><g><path d="M507,484.7c-13.6,0-27.2,0-40.9,0c-6.2,0-11.4-5.2-11.4-11.4c0-6.2,5.2-11.4,11.4-11.4c13.6,0,27.2,0,40.9,0 c6.2,0,11.4,5.2,11.4,11.4C518.5,479.5,513.3,484.7,507,484.7L507,484.7z" class="st24"/></g><g><path d="M590.5,126.9c-13.6,0-27.2,0-40.9,0c-6.2,0-11.4-5.2-11.4-11.4c0-6.2,5.2-11.4,11.4-11.4 c13.6,0,27.2,0,40.9,0c6.2,0,11.4,5.2,11.4,11.4C602,121.7,596.8,126.9,590.5,126.9L590.5,126.9z" class="st24"/></g><g><path d="M144.5,430.4c-15.1,0-30.2,0-45.3,0c-15.2,0-30.3,0-45.5,0c-0.1,0-0.2,0-0.2,0c-6.2,0-11.4-5.2-11.4-11.4 c0-6.2,5.2-11.4,11.4-11.4c15.2,0,30.3,0,45.5,0c15.1,0,30.2,0,45.3,0c0.1,0,0.1,0,0.2,0c6.2,0,11.4,5.2,11.4,11.4 C156,425.2,150.8,430.4,144.5,430.4L144.5,430.4z" class="st24"/></g></g></svg>