<svg xmlns="http://www.w3.org/2000/svg" xmlns:xlink="http://www.w3.org/1999/xlink" id="Layer_1" x="0" y="0" version="1.1" viewBox="0 0 508 508" xml:space="preserve" style="enable-background:new 0 0 508 508"><style type="text/css">.st0{fill:#68b8e9}.st1{fill:#f9b54c}.st2{fill:#ff7058}.st3{fill:#fff}.st4{fill:#324a5e}.st5{fill:#ffd05b}.st6{fill:#2b3b4e}</style><circle cx="254" cy="254" r="254" class="st0"/><ellipse cx="253.3" cy="257.7" class="st1" rx="21.8" ry="37.3"/><path d="M330.3,382.4c3.6-14.9,5.9-29.7,5.9-43.6c0-58.8-37-76.9-82.9-76.9c-45.6,0-82.9,17.8-82.9,76.9	c0,13.9,2,28.7,5.9,43.6H330.3z" class="st2"/><g><path d="M274.8,255.7c0,0-12.5,7.6-21.5,7.6l11.6,25.1l16.5-23.4L274.8,255.7z" class="st3"/><path d="M231.9,255.7c0,0,12.5,7.6,21.5,7.6l-11.6,25.1l-16.5-23.4L231.9,255.7z" class="st3"/></g><path d="M313.8,150.7c0,35-27.1,83.9-60.4,83.9s-60.4-48.9-60.4-83.9s27.1-50.2,60.4-50.2S313.8,115.7,313.8,150.7z" class="st4"/><path d="M298.2,185.7c0,35.7-20.1,64.4-44.9,64.4s-44.9-28.7-44.9-64.4c0-21.1,7.3-39.9,18.2-51.8	c7.9,7.9,17.5,15.5,28.4,22.1c14.5,8.9,29.1,15.2,42.3,18.8C297.9,178.4,298.2,182.1,298.2,185.7z" class="st5"/><path d="M333.9,420.1H172.8c-5.6,0-10.6-2.6-11.2-6.3l-20.1-99c-1-5.3,3.6-9.6,10.6-9.6h202.7c6.9,0,11.6,4.3,10.6,9.6	l-20.1,99C344.5,417.1,339.5,420.1,333.9,420.1z" class="st4"/><ellipse cx="253.3" cy="358" class="st6" rx="24.8" ry="10.6"/></svg>