<?xml version="1.0" encoding="utf-8"?>
<!-- Generator: Adobe Illustrator 22.0.1, SVG Export Plug-In . SVG Version: 6.00 Build 0)  -->
<svg version="1.1" id="Layer_1" xmlns="http://www.w3.org/2000/svg" xmlns:xlink="http://www.w3.org/1999/xlink" x="0px" y="0px"
	 viewBox="0 0 512 512" style="enable-background:new 0 0 512 512;" xml:space="preserve">
<style type="text/css">
	.st0{fill:#68B8E9;}
	.st1{fill:#F7C600;}
	.st2{fill:#FFD630;}
	.st3{fill:#FFFFFF;}
	.st4{fill:#F5BE18;}
	.st5{fill:#999999;}
</style>
<circle class="st0" cx="256" cy="256" r="256"/>
<rect x="123.8" y="203.2" class="st1" width="273.6" height="174.1"/>
<path class="st2" d="M123.8,203.2h273.6l-136.8-84.2L123.8,203.2z"/>
<path class="st3" d="M162.9,171.8h195.7c10.2,0,18.5,8.2,18.5,18.5v186.9H144.4V190.3C144.4,180.1,152.6,171.8,162.9,171.8z"/>
<path class="st2" d="M123.8,203.2l133.9,87l-133.9,87L123.8,203.2L123.8,203.2z"/>
<path class="st4" d="M123.8,377.2h273.6L260.6,290L123.8,377.2z"/>
<path class="st2" d="M397.4,203.2l-133.9,87l133.9,87V203.2z"/>
<path class="st5" d="M194.5,194.1h132.4V205H194.5V194.1z M194.5,232h132.4v10.9H194.5V232z M194.5,213.1h132.4v10.9H194.5V213.1z"
	/>
</svg>
