<svg xmlns="http://www.w3.org/2000/svg" xmlns:xlink="http://www.w3.org/1999/xlink" id="Layer_1" x="0" y="0" version="1.1" viewBox="0 0 508 508" xml:space="preserve" style="enable-background:new 0 0 508 508"><style type="text/css">.st0{fill:#68b8e9}.st1{fill:#fff}.st2{fill:#e6e9ee}.st3{fill:#ff7058}.st4{fill:#f1543f}.st5{fill:#ffd05b}.st6{fill:#324a5e}</style><circle cx="254" cy="254" r="254" class="st0"/><path d="M374.4,88.8H131.2c-5.2,0-9.6,4.4-9.6,9.6v311.2c0,5.2,4.4,9.6,9.6,9.6h243.2c5.2,0,9.6-4.4,9.6-9.6V98.4	C384,93.2,379.6,88.8,374.4,88.8z" class="st1"/><g><rect width="64.8" height="12" x="275.6" y="126" class="st2"/><rect width="106" height="12" x="234.4" y="163.2" class="st2"/><rect width="64.8" height="12" x="275.6" y="200.8" class="st2"/><rect width="84.4" height="12" x="256" y="238" class="st2"/><rect width="109.2" height="12" x="231.2" y="275.2" class="st2"/><rect width="104.4" height="12" x="165.2" y="126" class="st2"/><rect width="63.2" height="12" x="165.2" y="163.2" class="st2"/><rect width="104.4" height="12" x="165.2" y="200.8" class="st2"/><rect width="84.4" height="12" x="165.2" y="238" class="st2"/><rect width="60" height="12" x="165.2" y="275.2" class="st2"/></g><rect width="152" height="71.6" x="260.2" y="246.6" class="st3" transform="matrix(0.7071 -0.7071 0.7071 0.7071 -101.2072 320.474)"/><rect width="20.8" height="71.6" x="372.1" y="200.3" class="st2" transform="matrix(0.7071 -0.7071 0.7071 0.7071 -54.9115 339.6355)"/><path d="M415.2,254l21.6-21.6c3.2-3.2,3.2-8.4,0-12L398,181.6c-3.2-3.2-8.4-3.2-12,0l-21.6,21.6L415.2,254z" class="st4"/><polygon points="256.8 310.8 238.4 380 307.6 361.6" class="st5"/><polygon points="244.4 357.6 238.4 380 260.8 374" class="st6"/></svg>