<svg xmlns="http://www.w3.org/2000/svg" xmlns:xlink="http://www.w3.org/1999/xlink" id="Layer_1" x="0" y="0" version="1.1" viewBox="0 0 512 512" xml:space="preserve" style="enable-background:new 0 0 512 512"><style type="text/css">.st0{fill:#324a5e}.st1{display:none;fill:#055661}.st2{fill:#e6e6e6}.st3{fill:#b3b3b3}.st4{fill:#c94545}.st5{fill:#e84f4f}</style><circle cx="256" cy="256" r="256" class="st0"/><path d="M510.4,227.6c0.9,9.3,1.6,18.8,1.6,28.4c0,141.4-114.6,256-256,256c-9.9,0-19.5-0.6-29.2-1.7L67.9,351.4	l348.5-217.7L510.4,227.6z" class="st1"/><path d="M67.9,366.5c31.8-5.4,63.5-10.7,95.1-16.2c2.4-36.3,4.6-72.7,6.9-108.9s4.6-72.5,6.9-108.8	c-27,5.4-53.9,10.7-81.3,16.1c-4.6,36.3-9.1,72.5-13.7,108.8s-9.1,72.7-13.7,108.9L67.9,366.5z" class="st2"/><path d="M256,366.5c-31.4-5.4-62.3-10.7-93-16.2c2.4-36.3,4.6-72.7,6.9-108.9s4.6-72.5,6.9-108.8	c26.2,5.4,52.7,10.7,79.3,16.1c0,36.3,0,72.5,0,108.8s0,72.7,0,108.9L256,366.5z" class="st3"/><path d="M166.3,298.4l2.2-33.9c1.6,0,1.7-0.6,4.1,0c0.3,0.2,0.6,0.2,0.9,0.2c0,0,0.2,0,0.2,0.2l0.2,0.2	c0.3,0.3,0.5,0.6,0.8,0.9c1.6,1.1,3.2,2.4,4.6,3.5c3,0.9,3-0.8,6.3,1.7c1.4,1.1,0.8,1.1,1.6,2.4c0.2,0.2,0.3,0.5,0.5,0.6	c0.3,0.6,0.6,1.3,0.9,1.9c1.6,1.6,3.6,0.6,5.8,2.2c1.3,0.9,0.3,0.6,3,1.1c4.3,0.5,2.5,0.2,5.8,2.2c1.3,0.6,1.6,0.3,2.7,0.9	c1.6,1.7,1.3,3.6-0.2,5.2c-4.1,4.7-2.7,3.9-3,7.7c-0.2,2.2-0.9,6.6-3.5,7.1c-9.5,2-3.9,3.5-6.5,7.1c-0.8,1.1-1.3,1.3-1.7,2	c-1.9,3.5-0.6,4.6-6.1,3.8c0.5,0.8,0.2,0.2,0.8,0.9c1.6,2,1.9,3.5-1.4,3.9c-2.8,0.5-1.6,0-1.9,2.4c-1.1,0.3-1.6,0-2.4,0.6	c0.9,1.4,0,0.2,1.7,1.1c-0.3,0.8-0.5,1.6-0.8,2.2c-0.6,1.9-0.8,0.2-1.1,2.2c0.9,0.3,1.6,0.3,2.5,1.3c-0.2,0.6-0.9,2.7-1.3,3.8	c1.4,1.6,2.5,3.3,5.5,3.5c0,1.4,0.3,1.3-1.1,1.4c-1.3,0.2-3.9-0.6-5-1.1c-1.9-0.8-3.8-1.9-5-3.5c-0.8-0.8-0.5-0.5-1.3-1.3	c-1.4-1.4-0.8-2-1.3-3c-0.2-0.6-1.4-1.1-0.9-3c0.2-0.5,1.1-3-0.2-2.5c-1.3,0.5,0.9,0.2-0.8,0.9c-0.5-0.9-0.8-2.2-0.9-3.3	c-0.5-1.9-0.9-1.9-1.3-3c-0.6-2.5,0.8-2.8-0.8-7.3c-1.1-2.8-0.6-9.6-1.7-13.1L166.3,298.4L166.3,298.4z M256,199.6v27.9l0,0	c-0.3-0.2-0.5-0.3-0.8-0.5c-1.6-1.1-2-2.2-3.8-1.9c0,1.1,0.2,1.1,0.8,1.9c2.5,2.5,1.7,1.6,3.8,2.5l0,0v3.5l0,0	c-0.2,0-0.3,0.2-0.5,0.2c-0.5-1.1,0.6-0.5-0.8-2c-0.8-0.8-1.4-0.9-2.7-1.4c-3-1.1-2.5-1.9-4.4-3.3c-2,0-1.6,0.5-3,1.1	c-1.7,0.6-1.4-0.2-3.5,0c-1.6,2.2,0.8,0.3-2.4,2.2c-3.6,2.2-0.6,4.4-6.5,5c-0.5,0-0.6,0-0.9,0.2c-1.1,0.3-0.5,0-1.1,0.5	c0.5,0.9-0.2,0.8,1.7,0.9c3.6,0.3,4.1-1.3,6.6-1.7c1.3-0.2,9.3-0.5,9.9-0.3c1.7,1.6,0.3,2.5,0.3,3.8c1.9,0.8,4.6,0.9,5.7,1.7	c1.3,0.9,0.6,0.8,1.3,0.9l0,0v16.9v51.1l-0.2-0.2c-0.3-0.5-0.8-0.9-0.9-1.4c-1.4-3.3-0.8-5.8-3.3-9.1c-3-4.4,1.6-6.6,1.4-9.1	c0-0.6-0.3-1.1-0.5-1.6c-0.6-2.7-0.9-5.2-3.3-7.3c-2.5-2.4-2.2-1.4-1.4-5.4c1.1-4.4-1.4-3.3-4.7-3.3c-1.7-3.9-4.9-2-8.2-0.8	c-2,0.8-2.8-0.2-5,0c-5,0.5-1.1,2.2-7.9-1.9c-2.8-1.7-0.9-0.8-2.7-3c-0.6-0.8-2.4-1.9-3.2-2.7c-2.5-2.5,0.5-5,0-8	c-0.8-5.4-1.9-0.6,1.9-7.3c2-3.5,5-3.5,5.8-5c0.6-1.4,0.2-2.4,1.6-3.6c1.1-1.1,2.7-0.8,3.3-2.4c0.9-2-0.8-2.2-2.7-2.4	c-0.8-2-0.8-1.6-0.2-3.5c0.3-1.1,0-1.6,0.3-2.7c0.8-2.7,6.6,0,8.4-1.1c0.8-1.1,0.9-2.2,0-3.3s-2.2-0.9-2.8-2	c1.4-0.8,0.3-0.2,1.6-0.3c1.4-0.3,1.3-0.6,3-0.8c1.6-0.2,2.5-1.3,4.1-2c2.2-1.1,1.1-2,3.8-2.4c4.1-0.6,1.4-0.5,1.9-3.5	c0.6-0.2,1.3-0.5,1.9-0.6c1.3,1.3-0.3,0.8,1.3,1.7c0.5-0.2,0.9-0.3,1.4-0.6c-0.2-1.4-1.1-1.1-1.6-3c-2,0.3-2.8,1.6-4.4,1.1	c-1.6-0.5-1.7-2.2-1.6-3.8c0.6-1.1,3.6-1.7,4.7-2c1.9-0.5,1.6-1.4,3.3-2.8c2.2-1.7,0.6,0,1.7-2.2c2.5,0,1.3-0.2,2.8-0.8l0,0	L256,199.6L256,199.6z M170.9,226.5l1.1-18.4c0.3-0.5,0.8-1.1,1.4-1.7c0.6,0,3.3,0.2,3.8,0.3c1.9,0.3,0.8,0.6,2.8,1.3	c0,1.3-0.8,2.8,1.6,2.5c1.9-0.3,1.4-1.4,3.6-1.7c0.9,1.9,0.8,2.7,1.3,4.9c5.4,1.6,3,3,1.9,6c0.6,0.3,1.4,0.5,2,0.8	c0,0.9,0,1.7-0.2,2.7c-0.2,0-5.8-0.9-6.1-1.1c0.8-1.9,2.5-1.9,3.5-3.9c-2,0.3-1.9,0.8-3.3,1.1c-1.3,0.3-2.4,0.2-3.8,0.2	c-0.5,1.3,0-1.1,0.2,0.5c0,0.6,0.5,0,0,0.6c-1.9-0.6-1.3-2.2-4.7-0.8c0.8,0.3,1.6,0.5,2.4,0.8c-0.2,1.7-0.3,0.5-0.8,1.6	c-1.3,3,3.3,1.1,4.4,0.9c-0.3,1.6-1.6,1.6-3.3,2c-2,0.5-2.5,1.1-4.1,1.4c0-1.9-0.3-0.3,0.8-1.6c-1.6,0.2-2.7,0.6-4.3,1.1h-0.2	L170.9,226.5L170.9,226.5z M172.5,202.7l0.5-6.5c0.8-0.3,1.7-0.5,2.7-0.5c12,0,6.3,0.5,9.9,1.7c0.8,0.3,2.4,0.5,2.8,0.9	c0.8,0.9,0,1.7,1.3,2.4c1.1,0.6,1.3,0,2.5,1.3c-0.3,0.8-0.9,1.6-2.5,1.6c-2,0-0.8-1.1-3-0.9c0,1.6,2,2.2,0.2,3	c-1.6,0.8-0.6-0.3-1.9,0.3c0,0-0.2,0-0.2,0.2l-0.2,0.2c-0.2,0.2-0.5,0.3-0.6,0.5c-3-0.6-2.5-0.3-4.3-1.9c-0.6-0.6-0.8-0.8-2-0.6	c-0.8,0-1.7,0.3-2.5-0.2c1.4-1.4,2.2,0,4.3-0.9c0.3-0.2,2.7-1.6,3.2-1.9c-0.6-1.1,0-0.2-0.9-0.9c-2-1.7-2.7-1.3-5.5-1.3	c-1.3,1.3-2.4,2.7-3.8,3.3L172.5,202.7z M231.6,211.7c0,3.3,1.4,2.2,2.8,3.8c-0.6,1.4-0.8,0.3-1.4,1.7c-0.6,1.3,0.2,0.2-0.3,2.2	c1.1,0,2.7-0.3,4.1-0.3c2-0.2,2-0.3,2.7-1.9c-1.1-1.1-2.2-2.2-3.5-3.2c-1.4-1.7,0-0.5-0.5-2c-0.3-0.5-0.6-1.1-0.9-1.6	c-1.9,0.5-1.7,0.3-3.2,1.3L231.6,211.7L231.6,211.7z" class="st4"/><path d="M256,366.5c31.2-5.4,62.1-10.7,93-16.2c-2.4-36.3-4.6-72.7-6.9-108.9s-4.6-72.5-6.9-108.8	c-26.2,5.4-52.7,10.7-79.3,16.1c0,36.3,0,72.5,0,108.8s0,72.7,0,108.9L256,366.5z" class="st2"/><path d="M444.1,366.5c-32-5.4-63.7-10.7-95.1-16.2c-2.4-36.3-4.6-72.7-6.9-108.9s-4.6-72.5-6.9-108.8	c26.8,5.4,53.9,10.7,81.3,16.1c4.6,36.3,9.1,72.5,13.7,108.8s9.1,72.7,13.9,108.9L444.1,366.5L444.1,366.5z" class="st3"/><g><path d="M88.1,206.1l-0.3,3.2c2.8,0.6,6,0.3,7.3,0.5c2.2,0.3,0.9,0.3,3.3-0.2c1.3-0.3,3-0.9,3.3-0.9 c0.6,0,1.7,0.6,3.6,0.8c4.1,0.3,3.6,2,3.5,4.9c0.5,0.2,0.8,0.2,1.3,0.3c0,0,0.2,0.2,0.3,0.2c0,0,0.2,0.2,0.3,0.2c0,0,0.2,0,0.3,0.2 c-0.5,1.4-0.3,0.6-0.3,2.4c0.2,1.6-0.3,1.6-0.8,2.7c1.6,2.2,1.9,1.9,0,4.6c-2.5,3.8-4.9,4.3-4.1,9.6c0.3,1.6,0.6,2.7,2,3.5 c0.6,0.3,0-0.2,0.6,0.5c0.6,0.5,0.2-0.2,0.5,0.6c0.8,0.6,0-0.3,0.5,0.6c0.6,1.3,0.2,1.7,0.8,2.8c1.6,3.2,0.8,0.3,0.8,3.5 c2.4,0.8,1.6,0.3,2.4,2.2c0.5,1.1,1.4,1.9,2.7,2c-1.4-5-6.1-8.2-3.2-9.3c2.2,1.4,0,1.6,1.9,3.6c3,3,1.3,1.6,2.5,3.2 c0.6,0.8,1.7,1.6,2.7,2.7c1.7,1.9,0.8,2,0.8,4.1c1.9,1.4,4.7,2.5,7.6,3.5c3.3,1.1,1.6,0.8,4.6,0.5c2-0.2,2.4,1.1,3.5,1.9 c2.8,1.9,5-0.3,7.4,3.8c1.1,1.9-0.9-0.2,2.8,2.7c1.3,0.6,2.5,1.1,3.8,1.7c0.8-1.1,0-1.3,1.7-1.9c0.8,0.5,1.7,1.9,2.2,3 c1.6,5.7-6.1,5.7-2.7,10.4c-0.6,1.3-1.4,0.9-0.9,2.5c0.5,1.7,1.1,1.3,2,2.2c2.2,2.2,4.7,8,7.6,9.6c0,0,0.2,0,0.2,0.2 c2,1.1,4.4,1.7,5.5,3c0.3,0.3,0.5,0.8,0.6,1.4l2.2-33.9c-0.5,0-1.3-0.2-2.2-0.3c-2.2-0.5-2.5-2.2-4.4-0.5c-0.3-0.5-0.6-0.9-0.9-1.4 c-0.3,0.2-0.5,0.3-0.8,0.3c-2.7,1.3-3,0.3-4.1,2.2c-0.6,1.1-0.2,0.6-1.3,1.6c-1.7-0.2-1.4-1.1-3.3-0.8c-1.7,0.2-1.7,1.3-3.8,0.2 c-2.5-1.4-0.8-4.3-0.9-6.8c-3.3-1.4-3.3,0-5.8-0.8c-0.5-0.9,0.5-2,0.8-2.7c0.5-1.1,0.9-2,0.6-3.5c-3.5-0.5-3.2,0.5-4.3,2 c-1.6,2.5-7.7,2.2-8-3.2c-0.2-1.9,0.8-3.2,1.3-5c0.3-1.4,1.9-2,3.3-2.8c2.8-1.4,3.8,0.3,5.7,0c1.7-0.3,1.1-1.9,5.4-0.9 c3.9,0.8,2.8-0.3,3.6,3.3c0.9,0.3,1.9,0.5,2.8,0.8c-0.3-5.7-2.5-4.1,2.2-7.4c1.4-0.9,2-0.9,3.6-1.7c1.9-0.9,2.4-0.9,1.9-3.5 c0,0,0.2-0.2,0.3-0.2c1.1-0.8,2.4-1.7,3.5-2.5c1.1-0.9,3.2-1.4,4.7-1.7c0.2-1.9,0.5-2,2.5-2.7l1.1-18.4c-2.2,3.5,1.9,5.4-6.5,6.8 c-0.6,1.7-0.6,4.3-3.2,3c-1.1-1.4,0.5-2.4,0.5-3.6c-1.1-0.2-1.9-0.3-2.5-0.5c-3.5-0.8-2.4-1.6-5.8-1.7c-0.2-2-0.6-0.9-0.6-2.7 c1.4-1.1,3.9-2.2,6.5-3.2c2.4-0.8,4.7-1.6,6.6-2c-0.3,0.5-0.6,0.9-0.9,1.4c2.4,1.1,1.4,1.6,2.5,1.3s0-0.5,0-0.5 c-0.2-0.3-2.4-0.3,0-0.9c1.1-0.3,1.7,0.2,2.8,0.3c-0.2-2.4-1.7-0.9-2.5-2.8c1.4,0.5,2.4,0.3,3.3,0l0.5-6.5c-1.1,0.5-1.9,1.1-2.4,2 c0.5,0.8,1.4,0.8,1.9,1.3c-0.6,0.9-2.2,1.9-3.8,1.9c0.9-3.5-1.7,0.8-1.1-4.3c1.4-0.5,3.2-0.5,4.3-1.3c-0.5-0.2-0.9-0.5-1.4-0.6 c-2.2-0.3-3.2,1.4-4.4,2c-0.5-0.8,0.2-0.8,0.2-1.7c-1.7-0.2-4.1,0.3-5.2,1.3c1.3,0.9,0.9,0.8,3,1.1c-1.3,1.9,0.8,1.9-1.6,3 c0,0,0-0.3-0.2-0.2v-0.2c-0.2-0.3-0.2-0.6-0.3-1.1c-0.6,0-0.9,0-1.3,0.2c-0.8,0.3-1.1,0.8-1.6,1.6c-1.4,0-3.5,0.3-4.9-0.2 c-1.6-0.6-0.6-0.3-1.3-0.8c4.3,0.3,2.4,0,5.5-0.6c-0.2-0.5-0.3-0.5-0.5-0.6c-0.9-1.6,0.2,0.8-0.6-0.9c0.9-1.3,1.3-1.1,1.9-2 c-1.9,0-3.2,0.9-4.7,0.8c-4.4-0.3-7.3-3-11.4-1.3c-1.3,0.5-3.5,1.1-3.5,2.4c1.9,0.3,3-0.2,4.9-0.5c-0.3,0.9-0.8,1.9-1.1,2.8 c-2.2,0-1.3-0.2-3.2-0.5c-1.9-0.5-2,0-3.8-0.2c-2.5-0.2-0.6-0.5-2.7-0.6c-2.7-0.2-6.9,1.3-9.6,1.1c-4.4-0.6-8.7-1.3-13.1-1.9 c-2.8-0.5-14.5,1.9-15.1,2.4c-1.1,0.6,0.2,0.6-0.2,2.4c-1.9,0-6.5-0.8-6.8,1.4c1.6,0.5,2.7,0,3.8,0.6c-1.1,0.8-2.7,0.9-4.3,1.1 L88.1,206.1z" class="st5"/><path d="M342.9,252.1l-0.6-10.6l-2.8-46c-2.7-1.3-0.5-2-6.5-2.2c-2.8,0-3.8-1.1-7.6-0.2c-2.7,0.8-1.6,0.2-3.9,0.3 c-2.2,0.6-4.4,1.3-6.6,1.9c-0.9,0.6-0.9,0.3-2,0.5c-2.8,0.6-0.3,0.2-1.7,0.8c-2.5,1.1-2.8,0.3-3.9,0.6c-0.5,0.2-0.6,0.5-1.4,0.8 c-1.1-1.4-1.3-1.7-3.8-1.4c-2,2.5-0.5,2.2,1.1,3.8c-2.2-0.2-4.1-1.3-6.5-0.9c-1.4,0.2-0.8,0.2-1.4,1.1c-1.7-0.5-1.6,0-3.3,0 c-2,0.2-1.9-0.3-3.3-0.2c-2.4,0.2-3.9,1.6-5.5,1.7c-1.1-1.4,0.8-1.3-1.6-1.6c-0.8,0.9-0.5,0.6,0,1.9c-2.4,0.2-3.2,0-3.8,1.7 c-0.6-0.2-1.4-0.2-2-0.3c-0.6,0.5,0,0.2-0.5,1.1c-2-0.5-2.2-0.5-2.7-2.2c2.5-0.2,4.1,0.9,5.8-0.5c-0.5-2.4-7.6-2.4-9.9-3 c-3-0.9-4.7-1.4-8.8-0.5c-1.1,0.3-2.2,0.3-3.2,0.6h-0.2v27.9c1.1,0.5,2.4,0.9,3.2,1.4c0.9,2-0.3,1.1,1.6,3.3c1.1,1.1,0.8,2,2,2.7 c2-0.2,0.3,0.3,1.6-0.8c0.2-0.2,0.8-0.8,1.1-0.9c-0.6-0.8-1.1-0.8-1.7-1.7c2.4-2.4,3.3-1.1,3.9,0.6c1.4,4.4,3.8,3.2,5.7,3 c1.9-0.2,0.3,0,2,0.5c1.6,0.3,0.8,0,2-0.2c3.9-0.8,0.9,5.2,0.5,5.8c-2.2,0.2-1.7-0.2-3.3-0.3c-3.2-0.3,0.2,1.4-7.3-0.5 c-7.1-1.7-5.5-2.2-7.1,1.7c-1.6-0.2-1.6-0.3-3-0.8c-0.6-0.2-0.9-0.3-1.1-0.3v16.9v51.1c0.8,1.1,1.7,2.2,2,3.5 c0.5,1.6-0.8,1.9,0.9,3c0.6,0.3,7.6,0.3,10.9-2c0.6-0.5,1.1-0.6,1.7-1.4c0.8-0.8,0.8-1.1,1.4-2c0.9-1.1,1.1-0.3,1.7-1.7 c0.6-1.1,0.3-1.9,0.8-2.7c0.9-0.6,2-0.6,2.8-1.6c1.1-3.8-1.7-3.5,0.9-5.8c2.5-2.2,4.7-2.5,5.4-3.3c3-3-1.9-10.4-0.3-13.1 c1.4-2.4,2.2-2.5,3.6-4.6c2.8-3.6,6.5-3.5,8.7-8.2c0.6-1.4,3.2-3.9,2-5.5c-0.9-0.6-6.6,1.4-8.7,0.9c-1.3-2.4-0.5-2.8-3.5-4.6 c-3.9-2.4-1.3-1.9-3.8-4.3c-1.3-1.1-0.8-0.9-1.1-2.7c-0.3-1.3-1.1-1.6-1.7-2.5c-0.6-0.8-2.8-4.4-2.4-5.5c2-0.2,3,1.9,3.9,3.2 c0.6,0.8,1.3,1.1,1.6,1.9c0.6,0.9,0.2,1.6,1.1,2.7c1.9,2.4,1.9,0.6,3.8,5.4c0.6,1.4,1.3,2.7,1.9,4.1c3-0.2,5.8-1.9,8.5-2.7 c2.7-0.8,0.9-0.6,2.5-1.6c0.9-0.6,1.6-0.3,2.7-0.9c1.4-0.8,5.8-4.7,5.4-6.1c-1.1-1.1-0.8-0.6-2.5-1.4c-2.2-0.8-0.8-1.1-2.2-2.2 c-1.6,0.9-2.2,1.9-5,1.7c0-0.2-0.2-0.9-0.3-0.9c-0.5-0.9-1.4-1.4-2.2-2c-1.1-0.9-2.4-1.3-2.2-3.2c2.8-1.3,2.5,0.9,4.6,2.2 c3,2,2.8,1.1,5.8,0.9c1.7,1.9,2,1.7,5,1.9c1.6,0.2,5.5-0.3,6.6,0c1.3,0.9,2.7,1.9,3.9,2.8c0.6,0.9,0.2,1.3,1.3,1.9 c1.6,0.8,1.4,0,3.2-0.2c0.3,0.8,0.6,3,0.9,4.1c0.6,2.2,1.6,3.5,2.4,5.4c0.5,1.1,2.5,5,3,5.2c1.6,0.2,2.8-2.2,3.2-3.2 c0.6-2.5,0.2-3,0.5-5c2.5-1.3,3.9-3.2,6.3-4.7c1.9-1.3,0.8-0.8,1.9-1.9L342.9,252.1z M256,229.4v3.5c1.6-0.6-0.8-0.8,1.7-2.5 C256.9,229.9,256.5,229.5,256,229.4z M296.2,290.4c-1.6,0.6-1.9,2.2-3.2,3c-1.4,0.9-3.2,0.5-3.6,2.4c-0.6,2.2,1.1,1.6-0.8,4.4 c-0.8,1.1-0.8,3.8,0.3,4.6c3.3,2.5,5-3.8,5.8-5.7c0.6-1.4,1.1-3,1.7-4.3c0.6-1.4,1.4-2.5-0.2-4.4L296.2,290.4L296.2,290.4 L296.2,290.4z M290.8,225.1c0.3,2.8,2.5,3.9,3.9,5.2c-0.2,1.4-0.6,0.9-0.6,2.8c1.9,1.1,3.2,1.7,5.7,1.1c0.3-2.4-0.6-2.2-1.6-3.8 c0.2-0.2,0.6-0.5,0.6-0.5c0.6-0.6,0.3,0.3,0.6-0.9c-1.7-0.5-4.6-1.9-4.9-3.6c0.8-0.5,0.6-0.2,1.3-0.5c1.4-0.6,0.3,0.3,1.1-0.8 c-0.8-1.1-1.6-1.3-3.3-0.8c-0.8,0.2-2.7,1.3-3.2,1.6L290.8,225.1z M275.4,225.9c-1.1-1.3-1.1-1.9-3.3-1.9c-0.9,0.8-1.9,1.9-2.5,3 c-0.8,1.7-0.2,0.5-0.2,2.4v0.2c0,1.1-0.3-0.2-0.2,0.8c1.7-0.3,0.5-0.3,1.7-0.6c1.3-0.3,5-1.3,6.1-0.9c2.5,0.5,4.7,2,7.7,0.5 c-0.2-2-3.3-2.8-5.5-3.6c0.2-1.9,0.8-0.5,0.6-2.2c-0.8,0-1.3-0.2-1.9,0.2c-1.7,0.6-0.8,0.8-0.8,0.9c0,0.9,1.7-0.2,0,1.1 C276.8,225.9,276,225.9,275.4,225.9z" class="st5"/></g><path d="M351.5,196c5.5,0,3.6,1.6,6.5,2.2c2.2,0.6,0.8-0.3,3.3-0.5c0.8,0,1.6,0.2,2.4,0c2.2-0.2,1.1-0.3,1.9-0.6	c1.6-0.6,7.6-0.5,9-0.2c1.4,0.5,1.3,0.6,3.5,1.1c2.8,0.5,6.1-0.5,8.7,0.6c1.6,0.6,0.9,0.9,3.5,0.9c2,0,4.1-0.5,6,0	c2.2,0.5,0.8,0,3.5-0.5c0.8-0.2,1.4,0,2.2,0.2c1.9,0.5,1.4,0.8,3.9,0.8c4.4-0.2,7.1,1.4,11.2,1.9c2.7,0.3,5.5-0.2,5.4,2.5	c-2.8,0.3-5.2-1.7-7.9-0.5c0.2,2,1.6,0.8,3,2.4c-0.2,0-0.3,0-0.3,0c-2,0.5-3,0.9-4.6,2.5c-2,0-3.6-0.3-5.8,0.5c-0.3,2.7,4.1,2,3.5,6	c0,0.8,0,2-0.2,3c-1.9-0.2-6.3-3.9-7.3-5c-1.6-2,3-6.6,0.3-6.5c-0.9,0-0.3,0.5-1.4,1.3c-2.7-0.2-1.4-1.7-4.7-0.8	c-0.8,2.4,1.1,2-0.3,2.7c-1.4,0.6-2.5-0.3-3.6-0.5c-0.2,0-7.4,0.3-7.7,0.3c-0.8,0.8-2.2,3.6-2.5,4.4c2.4,1.1,3.9,0.8,4.7,0.8	c1.1,0,1.6,0.6,2.4,0.8c2.7,0.5,0-0.6,2.2,0c1.6,1.4,3.3,2.8,4.9,4.1c-0.3,0.5-0.6,1.1-0.8,1.6c-1.7-1.1-2-3.2-4.1-3.8	c-0.3,2.2,2.5,1.3,0.9,6.5c-1.4,4.6-2.4,2.8-4.9,3.3c-0.6,0.3-2,3.3-2.2,3.9c1.7,1.3,4.1,2,3.9,4.7c-1.1,0.5-1.7,0.8-3.2,0.5	c-1.6-4.7-0.9-2.4-2.8-3.8c-1.9-1.4,0.5-2.8-4.7-1.3c-0.8-0.9-0.3-0.8-0.8-1.9c-1.3,0.2-3.2,1.4-3.5,2.5c1.1,0.5,2,1.1,2.5,1.1	c1.1,0.2,1.6-0.5,3.2,0.2c-0.8,1.3-1.4,1.1-2,2.4c1.3,1.6,3.3,2.7,3.9,4.7c0,0,0,0.2,0.2,0.3c0.5,1.1,0.8,0.3,0.8,1.7	c0,1.1-0.6,1.7-1.1,2.8c-2.5,5-6,4.4-10.9,6.3c0,1.4,1.6,3.6-1.9,3.2c-0.3-2.2,1.3-1.1,0.9-3.3c-2.4-0.6-3.6,0.2-4.6,2.2	c0.9,3.3,6,3.6,4.7,8.8c-1.6,1.1-3.2,2-4.7,3.2c-1.4-0.8,0.2-0.2-1.3-1.6c-1.4-1.4-3.2-2.4-4.7-3.5c-0.2,0.2-0.2,0.3-0.3,0.6	c-0.5,1.1-1.3,2.4-0.8,3.5c0.2,0.6,1.4,2.7,2,3c1.1,0.8,2.4,1.1,2.7,2.4c0.2,0.5,0.8,3.9,0.8,4.1c-4.7-1.4-3.3-3.8-5-6.1	c-0.8-1.1-0.9-0.8-1.9-1.9c0-1.9,0.6-3.5,0-5.5c-0.3-1.1-1.1-2.8-1.4-4.1c-1.7,0.3-3.2,2.2-3.6,0.3c0-0.3-0.2-0.6-0.2-0.9	c-0.9-3.3-2.4-2.5-3.8-5.7c-2.4,0.6-2.4,0.6-5,0.9l-0.2,0.2l-0.6-10.6l-2.8-46h0.2c0,0,7.4,0.8,7.9,0.8c1.6,0,1.6-0.5,3.8-0.5	c0.2,0,0.2,0,0.3,0L351.5,196z M391.3,238.5c0.2,1.1,0.9,1.9,2.2,2.4c1.3-1.6-0.3-1.7,4.4-2.8c0.3,0,0.6-0.2,0.9-0.3	c3.9-1.7,1.3-0.5,4.3-1.4c0-1.4-0.5-2.4-0.6-3.9c0-1.7-0.8-2.4-2.8-2.7c-0.2,3.3,2.7,2.2-1.9,5.5c-2.4,1.7-3.9-0.3-6.3,3.2	L391.3,238.5z M365.1,282.8c0.3-0.9,0.5-2.2,0.9-3c1.7,0,0.2,1.1,2.8,0.9c0.5-0.8,0.5-1.3,0.3-2c-1.3-0.2-1.6,0-2.4,0.6	c-0.3-0.2-0.5-0.5-0.8-0.6c-1.3-0.6-1.1,0.9-2.2-0.9c-1.3-1.9,0.2-1.9-2.5-3.2c-1.6-0.8-2.2-1.3-3.6-2.4c-2.4-1.9-0.3-1.1-4.1-2	c0,2,0.5,0.8,2.5,3.3c0.8,1.1,1.7,2.4,2.5,3.5C359.9,278.6,361.1,283,365.1,282.8z M371.1,279.8c3.3,0.5,5.7,1.4,6.6,0.8	c0.9-0.9,0.6-1.6,1.7-2.8c1.4-1.7,0.5-1.3,2.2-2.7c-0.9-2.8-1.4-1.6,0.5-4.4c-0.3-0.9-1.1-1.9-2-2.5c-1.1,0.5-0.2,0-0.9,0.6	c-1.3,1.1-2.7,2.4-3.9,3.5c-1.1,0.9-0.6,0.2-2.4,1.3c-0.5,0.2-0.9,0.5-1.6,0.6c-0.8,0.2-1.4-0.5-1.6,1.4c-0.2,0.9,1.1,2.8,1.4,4.1	V279.8z M403.2,285.8c1.7,0.5,1.1-0.2,2.4,0c2.8,0.5,1.9,2.8,5.5-0.6c4.9,0,0,2.7,6.9,3.3c0-1.3-2.2-3-3.2-3.6	c0.5-0.9,0.5-0.5,0.8-1.6c-0.5-0.2-1.1-0.5-1.6-0.8c-2.8-2.5,0.9-0.6-5-2.8c-0.8-0.3-3.5-1.3-3.9-1.3c-2.4-0.3-2.2,1.3-4.1,1.6	c-1.3-1.3-0.5-3.3-2.7-3.2c-2.8,0.2,0,3.6,0,3.6c1.1,0.9,1.4-0.2,4.6,1.7c3.2,1.9,0.6,2.2,0.2,3.6H403.2z M399.1,293.2	c0.3-0.5,0.3-0.5,0.5-0.6c0.6-0.6,0.2,0,0.8-0.8s0.6-0.9,0.6-1.9c-1.9,0-2.7,0.5-4.1-0.8c-1.1,0.3-0.3,0.3-1.6,0.8	c-1.1,0.5-0.8,0-1.9,0.6c-1.3,0.8-0.9,1.6-2.5,2.4c-1.4-0.5-1.9-1.7-4.1-0.3c-1.4,0.9-0.5,0.5-1.4,1.4c-1.3,1.1-1.1,0.5-2.2,1.1	c-2.8,1.4,1.6,2.2-8.2,4.4c-0.8,0.2-3.6,1.6-4.1,2c-1.1,1.1-1.1,2.8-1.6,3.9c-0.8,2,0,1.9-0.3,5c-0.3,3.9-1.1,2.4-1.9,4.4	c1.7,2,3.3,0.2,5.5-0.3c1.3-0.3,2.5,0,3.8-0.2c0.9-0.2,1.6-0.8,2.7-1.3c0.3-0.2,6.5-1.3,6.8-1.3c3.2,0,3.5,1.3,3.9,3.5	c1.6-0.2,0.8-0.2,2.2-0.9c0.9,1.3,0.8,2.7,0.8,4.6c1.4,0.8,4.1,0.9,5.7,1.1c1.6,0,0.9-0.5,2.7-0.8c4.4-1.1,0.6,0.6,7.1-4.7	c1.7-1.4,2.7-1.7,4.1-3.6c1.4-1.7,3.9-4.9,2.5-7.3c-0.8-1.4-1.6-3-2.2-4.6c-1.4-2.2-1.7,0.9-2-5.2c-0.2-2.2,0.5-0.9-1.3-2	c0-1.7,0-2.2-0.5-3.3c-1.4,0.5-0.5-0.3-1.4,1.1c-1.7,2.5-1.6,8.4-5.5,5.5c-0.9-0.8-2.2-1.4-2.7-2.2L399.1,293.2z" class="st4"/></svg>