<svg xmlns="http://www.w3.org/2000/svg" xmlns:xlink="http://www.w3.org/1999/xlink" id="Capa_1" x="0" y="0" version="1.1" viewBox="0 0 42 42" xml:space="preserve" style="enable-background:new 0 0 42 42"><style type="text/css">.st0{fill:#324a5e}.st1{display:none;fill:#f2ffff}.st2{fill:#ed4c37}.st3{fill:#ffd67f}.st4{fill:#dda036}</style><g><circle cx="21" cy="21" r="21" class="st0"/></g><path d="M21,30.4c-2.4,0-4.8-0.8-6.6-2.4c-0.6-0.5-1.4-0.4-1.8,0.2c-0.5,0.6-0.4,1.4,0.2,1.8c2.3,1.9,5.3,3,8.3,3V30.4z" class="st1"/><path d="M21,33c2.4,0,4.8,0.8,6.6,2.4c0.6,0.5,1.4,0.4,1.8-0.2c0.5-0.6,0.4-1.4-0.2-1.8c-2.3-1.9-5.3-3-8.3-3V33z" class="st1"/><path d="M32.2,20.2c-2.1-1.3-4.3-0.1-5.3,0.6c-1-0.7-3.2-1.9-5.3-0.6c-1.3,0.8-2.1,1.8-2.3,3.1	c-0.4,2.4,1.1,4.6,1.8,5.5c1.7,2.1,5.1,5.4,5.3,5.6c0.2,0.2,0.4,0.2,0.6,0.2s0.4-0.1,0.6-0.2c0.1-0.1,3.6-3.4,5.3-5.6	c0.7-0.9,2.2-3.2,1.8-5.5C34.3,22,33.5,20.9,32.2,20.2z" class="st2"/><circle cx="16" cy="17.8" r="8.7" class="st3"/><path d="M16,18.7c1.8,0,3.3,1.5,3.3,3.3c0,0.2-0.1,0.3-0.3,0.3c-0.2,0-0.3-0.1-0.3-0.3c0-1.5-1.2-2.7-2.7-2.7	s-2.7,1.2-2.7,2.7c0,0.2-0.1,0.3-0.3,0.3s-0.3-0.1-0.3-0.3C12.8,20.2,14.2,18.7,16,18.7z" class="st4"/><circle cx="12.9" cy="16.3" r="1.5"/><circle cx="19.2" cy="16.3" r="1.5"/></svg>