<?xml version="1.0" encoding="utf-8"?>
<!-- Generator: Adobe Illustrator 22.0.1, SVG Export Plug-In . SVG Version: 6.00 Build 0)  -->
<svg version="1.1" id="Capa_1" xmlns="http://www.w3.org/2000/svg" xmlns:xlink="http://www.w3.org/1999/xlink" x="0px" y="0px"
	 viewBox="0 0 42 42" style="enable-background:new 0 0 42 42;" xml:space="preserve">
<style type="text/css">
	.st0{fill:#324A5E;}
	.st1{display:none;fill:#F2FFFF;}
	.st2{fill:#ED4C37;}
	.st3{fill:#FFD67F;}
	.st4{fill:#DDA036;}
</style>
<g>
	<circle class="st0" cx="21" cy="21" r="21"/>
</g>
<path class="st1" d="M21,30.4c-2.4,0-4.8-0.8-6.6-2.4c-0.6-0.5-1.4-0.4-1.8,0.2c-0.5,0.6-0.4,1.4,0.2,1.8c2.3,1.9,5.3,3,8.3,3V30.4z
	"/>
<path class="st1" d="M21,33c2.4,0,4.8,0.8,6.6,2.4c0.6,0.5,1.4,0.4,1.8-0.2c0.5-0.6,0.4-1.4-0.2-1.8c-2.3-1.9-5.3-3-8.3-3V33z"/>
<path class="st2" d="M32.2,20.2c-2.1-1.3-4.3-0.1-5.3,0.6c-1-0.7-3.2-1.9-5.3-0.6c-1.3,0.8-2.1,1.8-2.3,3.1
	c-0.4,2.4,1.1,4.6,1.8,5.5c1.7,2.1,5.1,5.4,5.3,5.6c0.2,0.2,0.4,0.2,0.6,0.2s0.4-0.1,0.6-0.2c0.1-0.1,3.6-3.4,5.3-5.6
	c0.7-0.9,2.2-3.2,1.8-5.5C34.3,22,33.5,20.9,32.2,20.2z"/>
<circle class="st3" cx="16" cy="17.8" r="8.7"/>
<path class="st4" d="M16,18.7c1.8,0,3.3,1.5,3.3,3.3c0,0.2-0.1,0.3-0.3,0.3c-0.2,0-0.3-0.1-0.3-0.3c0-1.5-1.2-2.7-2.7-2.7
	s-2.7,1.2-2.7,2.7c0,0.2-0.1,0.3-0.3,0.3s-0.3-0.1-0.3-0.3C12.8,20.2,14.2,18.7,16,18.7z"/>
<circle cx="12.9" cy="16.3" r="1.5"/>
<circle cx="19.2" cy="16.3" r="1.5"/>
</svg>
